%
M48
M72
T01C0.0315
T02C0.0320
T03C0.0354
T04C0.0400
T05C0.0472
T06C0.1250
%
T01
X1350Y3341
X1350Y4341
X1350Y5341
T02
X2850Y5841
X2850Y4841
X2850Y3841
X2850Y2841
X5850Y2841
X5850Y3841
X5850Y4841
X5850Y5841
T03
X4950Y8241
X950Y8241
T04
X1720Y9251
X1720Y11031
X4280Y11031
X4280Y9251
X4150Y7141
X3050Y7141
X7650Y6841
X7650Y7841
X7650Y8841
X7650Y5841
X7650Y4841
X7650Y3841
X7650Y2841
X7650Y1841
X8650Y1841
X8650Y2841
X8650Y3841
X8650Y4841
X8650Y5841
X9650Y5841
X9650Y4841
X9650Y3841
X9650Y2841
X9650Y1841
T05
X9650Y7341
X9650Y8719
X9650Y10091
X9650Y11469
T06
X1150Y1841
X6150Y10841
M30
