G75*
G70*
%OFA0B0*%
%FSLAX24Y24*%
%IPPOS*%
%LPD*%
%AMOC8*
5,1,8,0,0,1.08239X$1,22.5*
%
%ADD10C,0.0000*%
%ADD11C,0.1290*%
%ADD12C,0.0780*%
%ADD13OC8,0.0720*%
%ADD14R,0.0840X0.0840*%
%ADD15C,0.0840*%
%ADD16C,0.0050*%
D10*
X000150Y000841D02*
X000150Y012341D01*
X011150Y012341D01*
X011150Y000841D01*
X000150Y000841D01*
X000525Y001841D02*
X000527Y001891D01*
X000533Y001940D01*
X000543Y001989D01*
X000556Y002036D01*
X000574Y002083D01*
X000595Y002128D01*
X000619Y002171D01*
X000647Y002212D01*
X000678Y002251D01*
X000712Y002287D01*
X000749Y002321D01*
X000789Y002351D01*
X000830Y002378D01*
X000874Y002402D01*
X000919Y002422D01*
X000966Y002438D01*
X001014Y002451D01*
X001063Y002460D01*
X001113Y002465D01*
X001162Y002466D01*
X001212Y002463D01*
X001261Y002456D01*
X001310Y002445D01*
X001357Y002431D01*
X001403Y002412D01*
X001448Y002390D01*
X001491Y002365D01*
X001531Y002336D01*
X001569Y002304D01*
X001605Y002270D01*
X001638Y002232D01*
X001667Y002192D01*
X001693Y002150D01*
X001716Y002106D01*
X001735Y002060D01*
X001751Y002013D01*
X001763Y001964D01*
X001771Y001915D01*
X001775Y001866D01*
X001775Y001816D01*
X001771Y001767D01*
X001763Y001718D01*
X001751Y001669D01*
X001735Y001622D01*
X001716Y001576D01*
X001693Y001532D01*
X001667Y001490D01*
X001638Y001450D01*
X001605Y001412D01*
X001569Y001378D01*
X001531Y001346D01*
X001491Y001317D01*
X001448Y001292D01*
X001403Y001270D01*
X001357Y001251D01*
X001310Y001237D01*
X001261Y001226D01*
X001212Y001219D01*
X001162Y001216D01*
X001113Y001217D01*
X001063Y001222D01*
X001014Y001231D01*
X000966Y001244D01*
X000919Y001260D01*
X000874Y001280D01*
X000830Y001304D01*
X000789Y001331D01*
X000749Y001361D01*
X000712Y001395D01*
X000678Y001431D01*
X000647Y001470D01*
X000619Y001511D01*
X000595Y001554D01*
X000574Y001599D01*
X000556Y001646D01*
X000543Y001693D01*
X000533Y001742D01*
X000527Y001791D01*
X000525Y001841D01*
X005525Y010841D02*
X005527Y010891D01*
X005533Y010940D01*
X005543Y010989D01*
X005556Y011036D01*
X005574Y011083D01*
X005595Y011128D01*
X005619Y011171D01*
X005647Y011212D01*
X005678Y011251D01*
X005712Y011287D01*
X005749Y011321D01*
X005789Y011351D01*
X005830Y011378D01*
X005874Y011402D01*
X005919Y011422D01*
X005966Y011438D01*
X006014Y011451D01*
X006063Y011460D01*
X006113Y011465D01*
X006162Y011466D01*
X006212Y011463D01*
X006261Y011456D01*
X006310Y011445D01*
X006357Y011431D01*
X006403Y011412D01*
X006448Y011390D01*
X006491Y011365D01*
X006531Y011336D01*
X006569Y011304D01*
X006605Y011270D01*
X006638Y011232D01*
X006667Y011192D01*
X006693Y011150D01*
X006716Y011106D01*
X006735Y011060D01*
X006751Y011013D01*
X006763Y010964D01*
X006771Y010915D01*
X006775Y010866D01*
X006775Y010816D01*
X006771Y010767D01*
X006763Y010718D01*
X006751Y010669D01*
X006735Y010622D01*
X006716Y010576D01*
X006693Y010532D01*
X006667Y010490D01*
X006638Y010450D01*
X006605Y010412D01*
X006569Y010378D01*
X006531Y010346D01*
X006491Y010317D01*
X006448Y010292D01*
X006403Y010270D01*
X006357Y010251D01*
X006310Y010237D01*
X006261Y010226D01*
X006212Y010219D01*
X006162Y010216D01*
X006113Y010217D01*
X006063Y010222D01*
X006014Y010231D01*
X005966Y010244D01*
X005919Y010260D01*
X005874Y010280D01*
X005830Y010304D01*
X005789Y010331D01*
X005749Y010361D01*
X005712Y010395D01*
X005678Y010431D01*
X005647Y010470D01*
X005619Y010511D01*
X005595Y010554D01*
X005574Y010599D01*
X005556Y010646D01*
X005543Y010693D01*
X005533Y010742D01*
X005527Y010791D01*
X005525Y010841D01*
D11*
X006150Y010841D03*
X001150Y001841D03*
D12*
X001350Y003341D03*
X001350Y004341D03*
X001350Y005341D03*
X000950Y008241D03*
X001720Y009251D03*
X001720Y011031D03*
X004280Y011031D03*
X004280Y009251D03*
X004950Y008241D03*
X007650Y007841D03*
X007650Y008841D03*
X007650Y006841D03*
X007650Y005841D03*
X007650Y004841D03*
X007650Y003841D03*
X007650Y002841D03*
X007650Y001841D03*
X008650Y001841D03*
X008650Y002841D03*
X008650Y003841D03*
X008650Y004841D03*
X008650Y005841D03*
X009650Y005841D03*
X009650Y004841D03*
X009650Y003841D03*
X009650Y002841D03*
X009650Y001841D03*
D13*
X005850Y002841D03*
X005850Y003841D03*
X005850Y004841D03*
X005850Y005841D03*
X002850Y005841D03*
X002850Y004841D03*
X002850Y003841D03*
X002850Y002841D03*
D14*
X009650Y007341D03*
X009650Y010091D03*
D15*
X009650Y008719D03*
X009650Y011469D03*
D16*
X004286Y007250D02*
X004307Y007216D01*
X004319Y007178D01*
X004323Y007139D01*
X004318Y007100D01*
X004305Y007064D01*
X004284Y007031D01*
X004257Y007004D01*
X004224Y006984D01*
X004187Y006972D01*
X004149Y006968D01*
X004111Y006971D01*
X004074Y006983D01*
X004042Y007002D01*
X004014Y007029D01*
X003993Y007061D01*
X003979Y007097D01*
X004317Y007097D01*
X004322Y007146D02*
X003975Y007146D01*
X003974Y007135D02*
X003978Y007175D01*
X003990Y007213D01*
X004010Y007247D01*
X004038Y007277D01*
X004072Y007299D01*
X004109Y007313D01*
X004149Y007319D01*
X004188Y007313D01*
X004226Y007300D01*
X004259Y007278D01*
X004286Y007250D01*
X004290Y007243D02*
X004008Y007243D01*
X003984Y007194D02*
X004314Y007194D01*
X004239Y007291D02*
X004060Y007291D01*
X003974Y007135D02*
X003979Y007097D01*
X004001Y007049D02*
X004296Y007049D01*
X004250Y007000D02*
X004045Y007000D01*
X003216Y007100D02*
X003203Y007064D01*
X003182Y007031D01*
X003155Y007004D01*
X003122Y006984D01*
X003085Y006972D01*
X003047Y006968D01*
X003009Y006971D01*
X002972Y006983D01*
X002940Y007002D01*
X002912Y007029D01*
X002891Y007061D01*
X002877Y007097D01*
X003215Y007097D01*
X003216Y007100D02*
X003221Y007139D01*
X003217Y007178D01*
X003205Y007216D01*
X003184Y007250D01*
X003157Y007278D01*
X003123Y007300D01*
X003086Y007313D01*
X003047Y007319D01*
X003007Y007313D01*
X002970Y007299D01*
X002936Y007277D01*
X002908Y007247D01*
X002888Y007213D01*
X002876Y007175D01*
X002872Y007135D01*
X002877Y007097D01*
X002873Y007146D02*
X003220Y007146D01*
X003212Y007194D02*
X002882Y007194D01*
X002905Y007243D02*
X003188Y007243D01*
X003137Y007291D02*
X002958Y007291D01*
X002899Y007049D02*
X003193Y007049D01*
X003148Y007000D02*
X002943Y007000D01*
M02*
