G75*
G70*
%OFA0B0*%
%FSLAX24Y24*%
%IPPOS*%
%LPD*%
%AMOC8*
5,1,8,0,0,1.08239X$1,22.5*
%
%ADD10C,0.0000*%
%ADD11C,0.1290*%
%ADD12C,0.0780*%
%ADD13OC8,0.0720*%
%ADD14R,0.0840X0.0840*%
%ADD15C,0.0840*%
%ADD16C,0.0050*%
D10*
X000150Y000841D02*
X000150Y012341D01*
X011150Y012341D01*
X011150Y000841D01*
X000150Y000841D01*
X000525Y001841D02*
X000527Y001891D01*
X000533Y001940D01*
X000543Y001989D01*
X000556Y002036D01*
X000574Y002083D01*
X000595Y002128D01*
X000619Y002171D01*
X000647Y002212D01*
X000678Y002251D01*
X000712Y002287D01*
X000749Y002321D01*
X000789Y002351D01*
X000830Y002378D01*
X000874Y002402D01*
X000919Y002422D01*
X000966Y002438D01*
X001014Y002451D01*
X001063Y002460D01*
X001113Y002465D01*
X001162Y002466D01*
X001212Y002463D01*
X001261Y002456D01*
X001310Y002445D01*
X001357Y002431D01*
X001403Y002412D01*
X001448Y002390D01*
X001491Y002365D01*
X001531Y002336D01*
X001569Y002304D01*
X001605Y002270D01*
X001638Y002232D01*
X001667Y002192D01*
X001693Y002150D01*
X001716Y002106D01*
X001735Y002060D01*
X001751Y002013D01*
X001763Y001964D01*
X001771Y001915D01*
X001775Y001866D01*
X001775Y001816D01*
X001771Y001767D01*
X001763Y001718D01*
X001751Y001669D01*
X001735Y001622D01*
X001716Y001576D01*
X001693Y001532D01*
X001667Y001490D01*
X001638Y001450D01*
X001605Y001412D01*
X001569Y001378D01*
X001531Y001346D01*
X001491Y001317D01*
X001448Y001292D01*
X001403Y001270D01*
X001357Y001251D01*
X001310Y001237D01*
X001261Y001226D01*
X001212Y001219D01*
X001162Y001216D01*
X001113Y001217D01*
X001063Y001222D01*
X001014Y001231D01*
X000966Y001244D01*
X000919Y001260D01*
X000874Y001280D01*
X000830Y001304D01*
X000789Y001331D01*
X000749Y001361D01*
X000712Y001395D01*
X000678Y001431D01*
X000647Y001470D01*
X000619Y001511D01*
X000595Y001554D01*
X000574Y001599D01*
X000556Y001646D01*
X000543Y001693D01*
X000533Y001742D01*
X000527Y001791D01*
X000525Y001841D01*
X005525Y010841D02*
X005527Y010891D01*
X005533Y010940D01*
X005543Y010989D01*
X005556Y011036D01*
X005574Y011083D01*
X005595Y011128D01*
X005619Y011171D01*
X005647Y011212D01*
X005678Y011251D01*
X005712Y011287D01*
X005749Y011321D01*
X005789Y011351D01*
X005830Y011378D01*
X005874Y011402D01*
X005919Y011422D01*
X005966Y011438D01*
X006014Y011451D01*
X006063Y011460D01*
X006113Y011465D01*
X006162Y011466D01*
X006212Y011463D01*
X006261Y011456D01*
X006310Y011445D01*
X006357Y011431D01*
X006403Y011412D01*
X006448Y011390D01*
X006491Y011365D01*
X006531Y011336D01*
X006569Y011304D01*
X006605Y011270D01*
X006638Y011232D01*
X006667Y011192D01*
X006693Y011150D01*
X006716Y011106D01*
X006735Y011060D01*
X006751Y011013D01*
X006763Y010964D01*
X006771Y010915D01*
X006775Y010866D01*
X006775Y010816D01*
X006771Y010767D01*
X006763Y010718D01*
X006751Y010669D01*
X006735Y010622D01*
X006716Y010576D01*
X006693Y010532D01*
X006667Y010490D01*
X006638Y010450D01*
X006605Y010412D01*
X006569Y010378D01*
X006531Y010346D01*
X006491Y010317D01*
X006448Y010292D01*
X006403Y010270D01*
X006357Y010251D01*
X006310Y010237D01*
X006261Y010226D01*
X006212Y010219D01*
X006162Y010216D01*
X006113Y010217D01*
X006063Y010222D01*
X006014Y010231D01*
X005966Y010244D01*
X005919Y010260D01*
X005874Y010280D01*
X005830Y010304D01*
X005789Y010331D01*
X005749Y010361D01*
X005712Y010395D01*
X005678Y010431D01*
X005647Y010470D01*
X005619Y010511D01*
X005595Y010554D01*
X005574Y010599D01*
X005556Y010646D01*
X005543Y010693D01*
X005533Y010742D01*
X005527Y010791D01*
X005525Y010841D01*
D11*
X006150Y010841D03*
X001150Y001841D03*
D12*
X001350Y003341D03*
X001350Y004341D03*
X001350Y005341D03*
X000950Y008241D03*
X001720Y009251D03*
X001720Y011031D03*
X004280Y011031D03*
X004280Y009251D03*
X004950Y008241D03*
X007650Y007841D03*
X007650Y008841D03*
X007650Y006841D03*
X007650Y005841D03*
X007650Y004841D03*
X007650Y003841D03*
X007650Y002841D03*
X007650Y001841D03*
X008650Y001841D03*
X008650Y002841D03*
X008650Y003841D03*
X008650Y004841D03*
X008650Y005841D03*
X009650Y005841D03*
X009650Y004841D03*
X009650Y003841D03*
X009650Y002841D03*
X009650Y001841D03*
D13*
X005850Y002841D03*
X005850Y003841D03*
X005850Y004841D03*
X005850Y005841D03*
X002850Y005841D03*
X002850Y004841D03*
X002850Y003841D03*
X002850Y002841D03*
D14*
X009650Y007341D03*
X009650Y010091D03*
D15*
X009650Y008719D03*
X009650Y011469D03*
D16*
X004438Y007378D02*
X004475Y007323D01*
X004502Y007263D01*
X004518Y007199D01*
X004523Y007133D01*
X004515Y007061D01*
X004493Y006992D01*
X004459Y006928D01*
X004412Y006873D01*
X004356Y006827D01*
X004292Y006794D01*
X004222Y006774D01*
X004150Y006768D01*
X004078Y006774D01*
X004008Y006794D01*
X003943Y006827D01*
X003886Y006873D01*
X003839Y006928D01*
X003804Y006992D01*
X003782Y007061D01*
X003774Y007134D01*
X003779Y007200D01*
X003795Y007264D01*
X003823Y007324D01*
X003860Y007379D01*
X003906Y007426D01*
X003960Y007464D01*
X004019Y007493D01*
X004083Y007511D01*
X004149Y007518D01*
X004215Y007511D01*
X004278Y007493D01*
X004338Y007464D01*
X004392Y007425D01*
X004438Y007378D01*
X004428Y007388D02*
X003869Y007388D01*
X003833Y007340D02*
X004464Y007340D01*
X004489Y007291D02*
X003808Y007291D01*
X003790Y007243D02*
X004507Y007243D01*
X004519Y007194D02*
X003779Y007194D01*
X003775Y007146D02*
X004522Y007146D01*
X004519Y007097D02*
X003778Y007097D01*
X003786Y007049D02*
X004511Y007049D01*
X004496Y007000D02*
X003802Y007000D01*
X003826Y006952D02*
X004471Y006952D01*
X004438Y006903D02*
X003861Y006903D01*
X003909Y006855D02*
X004390Y006855D01*
X004315Y006806D02*
X003984Y006806D01*
X003391Y006992D02*
X003357Y006928D01*
X003310Y006873D01*
X003254Y006827D01*
X003190Y006794D01*
X003120Y006774D01*
X003048Y006768D01*
X002976Y006774D01*
X002906Y006794D01*
X002841Y006827D01*
X002784Y006873D01*
X002737Y006928D01*
X002702Y006992D01*
X002680Y007061D01*
X002672Y007134D01*
X002677Y007200D01*
X002693Y007264D01*
X002721Y007324D01*
X002758Y007379D01*
X002804Y007426D01*
X002858Y007464D01*
X002917Y007493D01*
X002981Y007511D01*
X003047Y007518D01*
X003113Y007511D01*
X003176Y007493D01*
X003236Y007464D01*
X003290Y007425D01*
X003336Y007378D01*
X003373Y007323D01*
X003400Y007263D01*
X003416Y007199D01*
X003421Y007133D01*
X003413Y007061D01*
X003391Y006992D01*
X003394Y007000D02*
X002700Y007000D01*
X002684Y007049D02*
X003409Y007049D01*
X003417Y007097D02*
X002676Y007097D01*
X002673Y007146D02*
X003420Y007146D01*
X003417Y007194D02*
X002677Y007194D01*
X002688Y007243D02*
X003405Y007243D01*
X003387Y007291D02*
X002706Y007291D01*
X002731Y007340D02*
X003362Y007340D01*
X003326Y007388D02*
X002767Y007388D01*
X002819Y007437D02*
X003274Y007437D01*
X003192Y007485D02*
X002901Y007485D01*
X002724Y006952D02*
X003369Y006952D01*
X003336Y006903D02*
X002759Y006903D01*
X002807Y006855D02*
X003288Y006855D01*
X003213Y006806D02*
X002882Y006806D01*
X003921Y007437D02*
X004376Y007437D01*
X004294Y007485D02*
X004003Y007485D01*
M02*
