G75*
G70*
%OFA0B0*%
%FSLAX24Y24*%
%IPPOS*%
%LPD*%
%AMOC8*
5,1,8,0,0,1.08239X$1,22.5*
%
%ADD10C,0.0000*%
D10*
X000150Y000550D02*
X000150Y012050D01*
X011150Y012050D01*
X011150Y000550D01*
X000150Y000550D01*
X000525Y001550D02*
X000527Y001600D01*
X000533Y001649D01*
X000543Y001698D01*
X000556Y001745D01*
X000574Y001792D01*
X000595Y001837D01*
X000619Y001880D01*
X000647Y001921D01*
X000678Y001960D01*
X000712Y001996D01*
X000749Y002030D01*
X000789Y002060D01*
X000830Y002087D01*
X000874Y002111D01*
X000919Y002131D01*
X000966Y002147D01*
X001014Y002160D01*
X001063Y002169D01*
X001113Y002174D01*
X001162Y002175D01*
X001212Y002172D01*
X001261Y002165D01*
X001310Y002154D01*
X001357Y002140D01*
X001403Y002121D01*
X001448Y002099D01*
X001491Y002074D01*
X001531Y002045D01*
X001569Y002013D01*
X001605Y001979D01*
X001638Y001941D01*
X001667Y001901D01*
X001693Y001859D01*
X001716Y001815D01*
X001735Y001769D01*
X001751Y001722D01*
X001763Y001673D01*
X001771Y001624D01*
X001775Y001575D01*
X001775Y001525D01*
X001771Y001476D01*
X001763Y001427D01*
X001751Y001378D01*
X001735Y001331D01*
X001716Y001285D01*
X001693Y001241D01*
X001667Y001199D01*
X001638Y001159D01*
X001605Y001121D01*
X001569Y001087D01*
X001531Y001055D01*
X001491Y001026D01*
X001448Y001001D01*
X001403Y000979D01*
X001357Y000960D01*
X001310Y000946D01*
X001261Y000935D01*
X001212Y000928D01*
X001162Y000925D01*
X001113Y000926D01*
X001063Y000931D01*
X001014Y000940D01*
X000966Y000953D01*
X000919Y000969D01*
X000874Y000989D01*
X000830Y001013D01*
X000789Y001040D01*
X000749Y001070D01*
X000712Y001104D01*
X000678Y001140D01*
X000647Y001179D01*
X000619Y001220D01*
X000595Y001263D01*
X000574Y001308D01*
X000556Y001355D01*
X000543Y001402D01*
X000533Y001451D01*
X000527Y001500D01*
X000525Y001550D01*
X005525Y010550D02*
X005527Y010600D01*
X005533Y010649D01*
X005543Y010698D01*
X005556Y010745D01*
X005574Y010792D01*
X005595Y010837D01*
X005619Y010880D01*
X005647Y010921D01*
X005678Y010960D01*
X005712Y010996D01*
X005749Y011030D01*
X005789Y011060D01*
X005830Y011087D01*
X005874Y011111D01*
X005919Y011131D01*
X005966Y011147D01*
X006014Y011160D01*
X006063Y011169D01*
X006113Y011174D01*
X006162Y011175D01*
X006212Y011172D01*
X006261Y011165D01*
X006310Y011154D01*
X006357Y011140D01*
X006403Y011121D01*
X006448Y011099D01*
X006491Y011074D01*
X006531Y011045D01*
X006569Y011013D01*
X006605Y010979D01*
X006638Y010941D01*
X006667Y010901D01*
X006693Y010859D01*
X006716Y010815D01*
X006735Y010769D01*
X006751Y010722D01*
X006763Y010673D01*
X006771Y010624D01*
X006775Y010575D01*
X006775Y010525D01*
X006771Y010476D01*
X006763Y010427D01*
X006751Y010378D01*
X006735Y010331D01*
X006716Y010285D01*
X006693Y010241D01*
X006667Y010199D01*
X006638Y010159D01*
X006605Y010121D01*
X006569Y010087D01*
X006531Y010055D01*
X006491Y010026D01*
X006448Y010001D01*
X006403Y009979D01*
X006357Y009960D01*
X006310Y009946D01*
X006261Y009935D01*
X006212Y009928D01*
X006162Y009925D01*
X006113Y009926D01*
X006063Y009931D01*
X006014Y009940D01*
X005966Y009953D01*
X005919Y009969D01*
X005874Y009989D01*
X005830Y010013D01*
X005789Y010040D01*
X005749Y010070D01*
X005712Y010104D01*
X005678Y010140D01*
X005647Y010179D01*
X005619Y010220D01*
X005595Y010263D01*
X005574Y010308D01*
X005556Y010355D01*
X005543Y010402D01*
X005533Y010451D01*
X005527Y010500D01*
X005525Y010550D01*
M02*
