%
M48
M72
T01C0.0150
T02C0.0400
T03C0.0472
T04C0.1250
%
T01
X3150Y4050
X4150Y4050
X6200Y6050
T02
X7650Y5550
X7650Y4550
X7650Y3550
X7650Y2550
X7650Y1550
X8650Y1550
X8650Y2550
X8650Y3550
X8650Y4550
X8650Y5550
X9650Y5550
X9650Y4550
X9650Y3550
X9650Y2550
X9650Y1550
X7650Y6550
X7650Y7550
X7650Y8550
T03
X9650Y8428
X9650Y9800
X9650Y11178
X9650Y7050
T04
X1150Y1550
X6150Y10550
M30
