G75*
G70*
%OFA0B0*%
%FSLAX24Y24*%
%IPPOS*%
%LPD*%
%AMOC8*
5,1,8,0,0,1.08239X$1,22.5*
%
%ADD10C,0.0000*%
%ADD11R,0.0800X0.0800*%
%ADD12C,0.0800*%
%ADD13C,0.0740*%
%ADD14C,0.0100*%
%ADD15C,0.0240*%
%ADD16C,0.0270*%
%ADD17C,0.0160*%
D10*
X000150Y000550D02*
X000150Y012050D01*
X011150Y012050D01*
X011150Y000550D01*
X000150Y000550D01*
X000525Y001550D02*
X000527Y001600D01*
X000533Y001649D01*
X000543Y001698D01*
X000556Y001745D01*
X000574Y001792D01*
X000595Y001837D01*
X000619Y001880D01*
X000647Y001921D01*
X000678Y001960D01*
X000712Y001996D01*
X000749Y002030D01*
X000789Y002060D01*
X000830Y002087D01*
X000874Y002111D01*
X000919Y002131D01*
X000966Y002147D01*
X001014Y002160D01*
X001063Y002169D01*
X001113Y002174D01*
X001162Y002175D01*
X001212Y002172D01*
X001261Y002165D01*
X001310Y002154D01*
X001357Y002140D01*
X001403Y002121D01*
X001448Y002099D01*
X001491Y002074D01*
X001531Y002045D01*
X001569Y002013D01*
X001605Y001979D01*
X001638Y001941D01*
X001667Y001901D01*
X001693Y001859D01*
X001716Y001815D01*
X001735Y001769D01*
X001751Y001722D01*
X001763Y001673D01*
X001771Y001624D01*
X001775Y001575D01*
X001775Y001525D01*
X001771Y001476D01*
X001763Y001427D01*
X001751Y001378D01*
X001735Y001331D01*
X001716Y001285D01*
X001693Y001241D01*
X001667Y001199D01*
X001638Y001159D01*
X001605Y001121D01*
X001569Y001087D01*
X001531Y001055D01*
X001491Y001026D01*
X001448Y001001D01*
X001403Y000979D01*
X001357Y000960D01*
X001310Y000946D01*
X001261Y000935D01*
X001212Y000928D01*
X001162Y000925D01*
X001113Y000926D01*
X001063Y000931D01*
X001014Y000940D01*
X000966Y000953D01*
X000919Y000969D01*
X000874Y000989D01*
X000830Y001013D01*
X000789Y001040D01*
X000749Y001070D01*
X000712Y001104D01*
X000678Y001140D01*
X000647Y001179D01*
X000619Y001220D01*
X000595Y001263D01*
X000574Y001308D01*
X000556Y001355D01*
X000543Y001402D01*
X000533Y001451D01*
X000527Y001500D01*
X000525Y001550D01*
X005525Y010550D02*
X005527Y010600D01*
X005533Y010649D01*
X005543Y010698D01*
X005556Y010745D01*
X005574Y010792D01*
X005595Y010837D01*
X005619Y010880D01*
X005647Y010921D01*
X005678Y010960D01*
X005712Y010996D01*
X005749Y011030D01*
X005789Y011060D01*
X005830Y011087D01*
X005874Y011111D01*
X005919Y011131D01*
X005966Y011147D01*
X006014Y011160D01*
X006063Y011169D01*
X006113Y011174D01*
X006162Y011175D01*
X006212Y011172D01*
X006261Y011165D01*
X006310Y011154D01*
X006357Y011140D01*
X006403Y011121D01*
X006448Y011099D01*
X006491Y011074D01*
X006531Y011045D01*
X006569Y011013D01*
X006605Y010979D01*
X006638Y010941D01*
X006667Y010901D01*
X006693Y010859D01*
X006716Y010815D01*
X006735Y010769D01*
X006751Y010722D01*
X006763Y010673D01*
X006771Y010624D01*
X006775Y010575D01*
X006775Y010525D01*
X006771Y010476D01*
X006763Y010427D01*
X006751Y010378D01*
X006735Y010331D01*
X006716Y010285D01*
X006693Y010241D01*
X006667Y010199D01*
X006638Y010159D01*
X006605Y010121D01*
X006569Y010087D01*
X006531Y010055D01*
X006491Y010026D01*
X006448Y010001D01*
X006403Y009979D01*
X006357Y009960D01*
X006310Y009946D01*
X006261Y009935D01*
X006212Y009928D01*
X006162Y009925D01*
X006113Y009926D01*
X006063Y009931D01*
X006014Y009940D01*
X005966Y009953D01*
X005919Y009969D01*
X005874Y009989D01*
X005830Y010013D01*
X005789Y010040D01*
X005749Y010070D01*
X005712Y010104D01*
X005678Y010140D01*
X005647Y010179D01*
X005619Y010220D01*
X005595Y010263D01*
X005574Y010308D01*
X005556Y010355D01*
X005543Y010402D01*
X005533Y010451D01*
X005527Y010500D01*
X005525Y010550D01*
D11*
X009650Y009800D03*
X009650Y007050D03*
D12*
X009650Y008428D03*
X009650Y011178D03*
D13*
X007650Y008550D03*
X007650Y007550D03*
X007650Y006550D03*
X007650Y005550D03*
X007650Y004550D03*
X007650Y003550D03*
X007650Y002550D03*
X007650Y001550D03*
X008650Y001550D03*
X008650Y002550D03*
X008650Y003550D03*
X008650Y004550D03*
X008650Y005550D03*
X009650Y005550D03*
X009650Y004550D03*
X009650Y003550D03*
X009650Y002550D03*
X009650Y001550D03*
D14*
X009700Y001535D02*
X011000Y001535D01*
X011000Y001437D02*
X010159Y001437D01*
X010157Y001428D02*
X010169Y001500D01*
X009700Y001500D01*
X009700Y001600D01*
X010169Y001600D01*
X010157Y001672D01*
X010132Y001750D01*
X010095Y001823D01*
X010047Y001889D01*
X009989Y001947D01*
X009923Y001995D01*
X009850Y002032D01*
X009794Y002050D01*
X009850Y002068D01*
X009923Y002105D01*
X009989Y002153D01*
X010047Y002211D01*
X010095Y002277D01*
X010132Y002350D01*
X010157Y002428D01*
X010169Y002500D01*
X009700Y002500D01*
X009700Y002600D01*
X010169Y002600D01*
X010157Y002672D01*
X010132Y002750D01*
X010095Y002823D01*
X010047Y002889D01*
X009989Y002947D01*
X009923Y002995D01*
X009850Y003032D01*
X009794Y003050D01*
X009850Y003068D01*
X009923Y003105D01*
X009989Y003153D01*
X010047Y003211D01*
X010095Y003277D01*
X010132Y003350D01*
X010157Y003428D01*
X010169Y003500D01*
X009700Y003500D01*
X009700Y003600D01*
X010169Y003600D01*
X010157Y003672D01*
X010132Y003750D01*
X010095Y003823D01*
X010047Y003889D01*
X009989Y003947D01*
X009923Y003995D01*
X009850Y004032D01*
X009794Y004050D01*
X009850Y004068D01*
X009923Y004105D01*
X009989Y004153D01*
X010047Y004211D01*
X010095Y004277D01*
X010132Y004350D01*
X010157Y004428D01*
X010169Y004500D01*
X009700Y004500D01*
X009700Y004600D01*
X010169Y004600D01*
X010157Y004672D01*
X010132Y004750D01*
X010095Y004823D01*
X010047Y004889D01*
X009989Y004947D01*
X009923Y004995D01*
X009850Y005032D01*
X009794Y005050D01*
X009850Y005068D01*
X009923Y005105D01*
X009989Y005153D01*
X010047Y005211D01*
X010095Y005277D01*
X010132Y005350D01*
X010157Y005428D01*
X010169Y005500D01*
X009700Y005500D01*
X009700Y005600D01*
X009600Y005600D01*
X009600Y006069D01*
X009528Y006057D01*
X009450Y006032D01*
X009377Y005995D01*
X009311Y005947D01*
X009253Y005889D01*
X009205Y005823D01*
X009168Y005750D01*
X009143Y005672D01*
X009119Y005672D01*
X009143Y005672D02*
X009131Y005600D01*
X009600Y005600D01*
X009600Y005500D01*
X009131Y005500D01*
X009143Y005428D01*
X009168Y005350D01*
X009205Y005277D01*
X009253Y005211D01*
X009311Y005153D01*
X009377Y005105D01*
X009450Y005068D01*
X009506Y005050D01*
X009450Y005032D01*
X009377Y004995D01*
X009311Y004947D01*
X009253Y004889D01*
X009205Y004823D01*
X009168Y004750D01*
X009143Y004672D01*
X009131Y004600D01*
X009600Y004600D01*
X009600Y005500D01*
X009700Y005500D01*
X009700Y005031D01*
X009700Y004600D01*
X009600Y004600D01*
X009600Y004500D01*
X009131Y004500D01*
X009143Y004428D01*
X009168Y004350D01*
X009205Y004277D01*
X009253Y004211D01*
X009311Y004153D01*
X009377Y004105D01*
X009450Y004068D01*
X009506Y004050D01*
X009450Y004032D01*
X009377Y003995D01*
X009311Y003947D01*
X009253Y003889D01*
X009205Y003823D01*
X009168Y003750D01*
X009143Y003672D01*
X009131Y003600D01*
X009600Y003600D01*
X009600Y004500D01*
X009700Y004500D01*
X009700Y004031D01*
X009700Y003600D01*
X009600Y003600D01*
X009600Y003500D01*
X009131Y003500D01*
X009143Y003428D01*
X009168Y003350D01*
X009205Y003277D01*
X009253Y003211D01*
X009311Y003153D01*
X009377Y003105D01*
X009450Y003068D01*
X009506Y003050D01*
X009450Y003032D01*
X009377Y002995D01*
X009311Y002947D01*
X009253Y002889D01*
X009205Y002823D01*
X009168Y002750D01*
X009143Y002672D01*
X009131Y002600D01*
X009600Y002600D01*
X009600Y003031D01*
X009600Y003500D01*
X009700Y003500D01*
X009700Y002600D01*
X009600Y002600D01*
X009600Y002500D01*
X009131Y002500D01*
X009143Y002428D01*
X009168Y002350D01*
X009205Y002277D01*
X009253Y002211D01*
X009311Y002153D01*
X009377Y002105D01*
X009450Y002068D01*
X009506Y002050D01*
X009450Y002032D01*
X009377Y001995D01*
X009311Y001947D01*
X009253Y001889D01*
X009205Y001823D01*
X009168Y001750D01*
X009143Y001672D01*
X009131Y001600D01*
X009600Y001600D01*
X009600Y002069D01*
X009600Y002500D01*
X009700Y002500D01*
X009700Y001600D01*
X009600Y001600D01*
X009600Y001500D01*
X009131Y001500D01*
X009143Y001428D01*
X009168Y001350D01*
X009205Y001277D01*
X009253Y001211D01*
X009311Y001153D01*
X009377Y001105D01*
X009450Y001068D01*
X009528Y001043D01*
X009600Y001031D01*
X009600Y001500D01*
X009700Y001500D01*
X009700Y001031D01*
X009772Y001043D01*
X009850Y001068D01*
X009923Y001105D01*
X009989Y001153D01*
X010047Y001211D01*
X010095Y001277D01*
X010132Y001350D01*
X010157Y001428D01*
X010126Y001338D02*
X011000Y001338D01*
X011000Y001240D02*
X010067Y001240D01*
X009972Y001141D02*
X011000Y001141D01*
X011000Y001043D02*
X009770Y001043D01*
X009700Y001043D02*
X009600Y001043D01*
X009530Y001043D02*
X001739Y001043D01*
X001807Y001111D02*
X001925Y001396D01*
X001925Y001704D01*
X001807Y001989D01*
X001589Y002207D01*
X001304Y002325D01*
X000996Y002325D01*
X000711Y002207D01*
X000493Y001989D01*
X000375Y001704D01*
X000375Y001396D01*
X000493Y001111D01*
X000711Y000893D01*
X000996Y000775D01*
X001304Y000775D01*
X001589Y000893D01*
X001807Y001111D01*
X001819Y001141D02*
X007383Y001141D01*
X007378Y001143D02*
X007555Y001070D01*
X007745Y001070D01*
X007922Y001143D01*
X008057Y001278D01*
X008130Y001455D01*
X008130Y001645D01*
X008057Y001822D01*
X007922Y001957D01*
X007745Y002030D01*
X007555Y002030D01*
X007378Y001957D01*
X007243Y001822D01*
X007197Y001710D01*
X005716Y001710D01*
X003716Y003710D01*
X003395Y004031D01*
X003395Y004099D01*
X003358Y004189D01*
X003289Y004258D01*
X003199Y004295D01*
X003101Y004295D01*
X003011Y004258D01*
X002942Y004189D01*
X002905Y004099D01*
X002905Y004001D01*
X002942Y003911D01*
X003011Y003842D01*
X003101Y003805D01*
X003169Y003805D01*
X003490Y003484D01*
X003490Y003484D01*
X005584Y001390D01*
X007197Y001390D01*
X007243Y001278D01*
X007378Y001143D01*
X007282Y001240D02*
X001860Y001240D01*
X001901Y001338D02*
X007218Y001338D01*
X007650Y001550D02*
X005650Y001550D01*
X003650Y003550D01*
X003150Y004050D01*
X002955Y003899D02*
X000300Y003899D01*
X000300Y003801D02*
X003173Y003801D01*
X003272Y003702D02*
X000300Y003702D01*
X000300Y003604D02*
X003370Y003604D01*
X003469Y003505D02*
X000300Y003505D01*
X000300Y003407D02*
X003567Y003407D01*
X003666Y003308D02*
X000300Y003308D01*
X000300Y003210D02*
X003764Y003210D01*
X003863Y003111D02*
X000300Y003111D01*
X000300Y003013D02*
X003961Y003013D01*
X004060Y002914D02*
X000300Y002914D01*
X000300Y002816D02*
X004158Y002816D01*
X004257Y002717D02*
X000300Y002717D01*
X000300Y002619D02*
X004355Y002619D01*
X004454Y002520D02*
X000300Y002520D01*
X000300Y002422D02*
X004552Y002422D01*
X004651Y002323D02*
X001309Y002323D01*
X001547Y002225D02*
X004749Y002225D01*
X004848Y002126D02*
X001670Y002126D01*
X001769Y002028D02*
X004946Y002028D01*
X005045Y001929D02*
X001832Y001929D01*
X001873Y001831D02*
X005143Y001831D01*
X005242Y001732D02*
X001913Y001732D01*
X001925Y001634D02*
X005340Y001634D01*
X005439Y001535D02*
X001925Y001535D01*
X001925Y001437D02*
X005537Y001437D01*
X005694Y001732D02*
X007206Y001732D01*
X007252Y001831D02*
X005596Y001831D01*
X005497Y001929D02*
X007350Y001929D01*
X007548Y002028D02*
X005399Y002028D01*
X005300Y002126D02*
X007419Y002126D01*
X007378Y002143D02*
X007555Y002070D01*
X007745Y002070D01*
X007922Y002143D01*
X008057Y002278D01*
X008130Y002455D01*
X008130Y002645D01*
X008057Y002822D01*
X007922Y002957D01*
X007745Y003030D01*
X007555Y003030D01*
X007378Y002957D01*
X007243Y002822D01*
X007197Y002710D01*
X005716Y002710D01*
X004810Y003616D01*
X004395Y004031D01*
X004395Y004099D01*
X004358Y004189D01*
X004289Y004258D01*
X004199Y004295D01*
X004101Y004295D01*
X004011Y004258D01*
X003942Y004189D01*
X003905Y004099D01*
X003905Y004001D01*
X003942Y003911D01*
X004011Y003842D01*
X004101Y003805D01*
X004169Y003805D01*
X004584Y003390D01*
X005584Y002390D01*
X007197Y002390D01*
X007243Y002278D01*
X007378Y002143D01*
X007297Y002225D02*
X005202Y002225D01*
X005103Y002323D02*
X007224Y002323D01*
X007200Y002717D02*
X005709Y002717D01*
X005611Y002816D02*
X007240Y002816D01*
X007335Y002914D02*
X005512Y002914D01*
X005414Y003013D02*
X007512Y003013D01*
X007555Y003070D02*
X007378Y003143D01*
X007243Y003278D01*
X007170Y003455D01*
X007170Y003645D01*
X007243Y003822D01*
X007378Y003957D01*
X007555Y004030D01*
X007745Y004030D01*
X007922Y003957D01*
X008057Y003822D01*
X008130Y003645D01*
X008130Y003455D01*
X008057Y003278D01*
X007922Y003143D01*
X007745Y003070D01*
X007555Y003070D01*
X007456Y003111D02*
X005315Y003111D01*
X005217Y003210D02*
X007312Y003210D01*
X007231Y003308D02*
X005118Y003308D01*
X005020Y003407D02*
X007190Y003407D01*
X007170Y003505D02*
X004921Y003505D01*
X004823Y003604D02*
X007170Y003604D01*
X007193Y003702D02*
X004724Y003702D01*
X004626Y003801D02*
X007234Y003801D01*
X007320Y003899D02*
X004527Y003899D01*
X004429Y003998D02*
X007476Y003998D01*
X007492Y004096D02*
X004395Y004096D01*
X004352Y004195D02*
X007327Y004195D01*
X007378Y004143D02*
X007243Y004278D01*
X007170Y004455D01*
X007170Y004645D01*
X007243Y004822D01*
X007378Y004957D01*
X007555Y005030D01*
X007745Y005030D01*
X007922Y004957D01*
X008057Y004822D01*
X008130Y004645D01*
X008130Y004455D01*
X008057Y004278D01*
X007922Y004143D01*
X007745Y004070D01*
X007555Y004070D01*
X007378Y004143D01*
X007237Y004293D02*
X004204Y004293D01*
X004096Y004293D02*
X003204Y004293D01*
X003096Y004293D02*
X000300Y004293D01*
X000300Y004195D02*
X002948Y004195D01*
X002905Y004096D02*
X000300Y004096D01*
X000300Y003998D02*
X002907Y003998D01*
X003352Y004195D02*
X003948Y004195D01*
X003905Y004096D02*
X003395Y004096D01*
X003429Y003998D02*
X003907Y003998D01*
X003955Y003899D02*
X003527Y003899D01*
X003626Y003801D02*
X004173Y003801D01*
X004272Y003702D02*
X003724Y003702D01*
X003716Y003710D02*
X003716Y003710D01*
X003823Y003604D02*
X004370Y003604D01*
X004469Y003505D02*
X003921Y003505D01*
X004020Y003407D02*
X004567Y003407D01*
X004666Y003308D02*
X004118Y003308D01*
X004217Y003210D02*
X004764Y003210D01*
X004863Y003111D02*
X004315Y003111D01*
X004414Y003013D02*
X004961Y003013D01*
X005060Y002914D02*
X004512Y002914D01*
X004611Y002816D02*
X005158Y002816D01*
X005257Y002717D02*
X004709Y002717D01*
X004808Y002619D02*
X005355Y002619D01*
X005454Y002520D02*
X004906Y002520D01*
X005005Y002422D02*
X005552Y002422D01*
X005650Y002550D02*
X004650Y003550D01*
X004150Y004050D01*
X005650Y002550D02*
X007650Y002550D01*
X008003Y002225D02*
X008297Y002225D01*
X008243Y002278D02*
X008378Y002143D01*
X008420Y002126D01*
X008420Y001974D01*
X008378Y001957D01*
X008243Y001822D01*
X008170Y001645D01*
X008170Y001455D01*
X008243Y001278D01*
X008378Y001143D01*
X008555Y001070D01*
X008745Y001070D01*
X008922Y001143D01*
X009057Y001278D01*
X009130Y001455D01*
X009130Y001645D01*
X009057Y001822D01*
X008922Y001957D01*
X008880Y001974D01*
X008880Y002126D01*
X008922Y002143D01*
X009057Y002278D01*
X009130Y002455D01*
X009130Y002645D01*
X009057Y002822D01*
X008922Y002957D01*
X008880Y002974D01*
X008880Y003126D01*
X008922Y003143D01*
X009057Y003278D01*
X009130Y003455D01*
X009130Y003645D01*
X009057Y003822D01*
X008922Y003957D01*
X008880Y003974D01*
X008880Y004126D01*
X008922Y004143D01*
X009057Y004278D01*
X009130Y004455D01*
X009130Y004645D01*
X009057Y004822D01*
X008922Y004957D01*
X008880Y004974D01*
X008880Y005126D01*
X008922Y005143D01*
X009057Y005278D01*
X009130Y005455D01*
X009130Y005645D01*
X009057Y005822D01*
X008922Y005957D01*
X008894Y005969D01*
X009465Y006540D01*
X010096Y006540D01*
X010160Y006604D01*
X010160Y007496D01*
X010096Y007560D01*
X009204Y007560D01*
X009140Y007496D01*
X009140Y006865D01*
X008555Y006280D01*
X008420Y006145D01*
X008420Y005974D01*
X008378Y005957D01*
X008243Y005822D01*
X008170Y005645D01*
X008170Y005455D01*
X008243Y005278D01*
X008378Y005143D01*
X008420Y005126D01*
X008420Y004974D01*
X008378Y004957D01*
X008243Y004822D01*
X008170Y004645D01*
X008170Y004455D01*
X008243Y004278D01*
X008378Y004143D01*
X008420Y004126D01*
X008420Y003974D01*
X008378Y003957D01*
X008243Y003822D01*
X008170Y003645D01*
X008170Y003455D01*
X008243Y003278D01*
X008378Y003143D01*
X008420Y003126D01*
X008420Y002974D01*
X008378Y002957D01*
X008243Y002822D01*
X008170Y002645D01*
X008170Y002455D01*
X008243Y002278D01*
X008224Y002323D02*
X008076Y002323D01*
X008116Y002422D02*
X008184Y002422D01*
X008170Y002520D02*
X008130Y002520D01*
X008130Y002619D02*
X008170Y002619D01*
X008200Y002717D02*
X008100Y002717D01*
X008060Y002816D02*
X008240Y002816D01*
X008335Y002914D02*
X007965Y002914D01*
X007788Y003013D02*
X008420Y003013D01*
X008420Y003111D02*
X007844Y003111D01*
X007988Y003210D02*
X008312Y003210D01*
X008231Y003308D02*
X008069Y003308D01*
X008110Y003407D02*
X008190Y003407D01*
X008170Y003505D02*
X008130Y003505D01*
X008130Y003604D02*
X008170Y003604D01*
X008193Y003702D02*
X008107Y003702D01*
X008066Y003801D02*
X008234Y003801D01*
X008320Y003899D02*
X007980Y003899D01*
X007824Y003998D02*
X008420Y003998D01*
X008420Y004096D02*
X007808Y004096D01*
X007973Y004195D02*
X008327Y004195D01*
X008237Y004293D02*
X008063Y004293D01*
X008104Y004392D02*
X008196Y004392D01*
X008170Y004490D02*
X008130Y004490D01*
X008130Y004589D02*
X008170Y004589D01*
X008187Y004687D02*
X008113Y004687D01*
X008072Y004786D02*
X008228Y004786D01*
X008305Y004884D02*
X007995Y004884D01*
X007860Y004983D02*
X008420Y004983D01*
X008420Y005081D02*
X007772Y005081D01*
X007745Y005070D02*
X007922Y005143D01*
X008057Y005278D01*
X008130Y005455D01*
X008130Y005645D01*
X008057Y005822D01*
X007922Y005957D01*
X007745Y006030D01*
X007555Y006030D01*
X007378Y005957D01*
X007243Y005822D01*
X007170Y005645D01*
X007170Y005455D01*
X007243Y005278D01*
X007378Y005143D01*
X007555Y005070D01*
X007745Y005070D01*
X007528Y005081D02*
X000300Y005081D01*
X000300Y004983D02*
X007440Y004983D01*
X007305Y004884D02*
X000300Y004884D01*
X000300Y004786D02*
X007228Y004786D01*
X007187Y004687D02*
X000300Y004687D01*
X000300Y004589D02*
X007170Y004589D01*
X007170Y004490D02*
X000300Y004490D01*
X000300Y004392D02*
X007196Y004392D01*
X007342Y005180D02*
X000300Y005180D01*
X000300Y005278D02*
X007243Y005278D01*
X007202Y005377D02*
X000300Y005377D01*
X000300Y005475D02*
X007170Y005475D01*
X007170Y005574D02*
X000300Y005574D01*
X000300Y005672D02*
X007181Y005672D01*
X007222Y005771D02*
X000300Y005771D01*
X000300Y005869D02*
X006035Y005869D01*
X006061Y005842D02*
X005992Y005911D01*
X005955Y006001D01*
X005955Y006099D01*
X005992Y006189D01*
X006061Y006258D01*
X006151Y006295D01*
X006169Y006295D01*
X007216Y007343D01*
X007170Y007455D01*
X007170Y007645D01*
X007243Y007822D01*
X007378Y007957D01*
X007555Y008030D01*
X007745Y008030D01*
X007922Y007957D01*
X008057Y007822D01*
X008085Y007754D01*
X008460Y008129D01*
X008460Y008879D01*
X008571Y008990D01*
X008571Y008990D01*
X009140Y009559D01*
X009140Y010246D01*
X009204Y010310D01*
X010096Y010310D01*
X010160Y010246D01*
X010160Y009354D01*
X010096Y009290D01*
X009409Y009290D01*
X008840Y008721D01*
X008840Y007971D01*
X008340Y007471D01*
X008229Y007360D01*
X008091Y007360D01*
X008057Y007278D01*
X007922Y007143D01*
X007745Y007070D01*
X007555Y007070D01*
X007443Y007116D01*
X006439Y006113D01*
X006445Y006099D01*
X006445Y006001D01*
X006408Y005911D01*
X006339Y005842D01*
X006249Y005805D01*
X006151Y005805D01*
X006061Y005842D01*
X005969Y005968D02*
X000300Y005968D01*
X000300Y006066D02*
X005955Y006066D01*
X005982Y006165D02*
X000300Y006165D01*
X000300Y006263D02*
X006074Y006263D01*
X006235Y006362D02*
X000300Y006362D01*
X000300Y006460D02*
X006334Y006460D01*
X006432Y006559D02*
X000300Y006559D01*
X000300Y006657D02*
X006531Y006657D01*
X006629Y006756D02*
X000300Y006756D01*
X000300Y006854D02*
X006728Y006854D01*
X006826Y006953D02*
X000300Y006953D01*
X000300Y007051D02*
X006925Y007051D01*
X007023Y007150D02*
X000300Y007150D01*
X000300Y007248D02*
X007122Y007248D01*
X007215Y007347D02*
X000300Y007347D01*
X000300Y007445D02*
X007174Y007445D01*
X007170Y007544D02*
X000300Y007544D01*
X000300Y007642D02*
X007170Y007642D01*
X007209Y007741D02*
X000300Y007741D01*
X000300Y007839D02*
X007260Y007839D01*
X007359Y007938D02*
X000300Y007938D01*
X000300Y008036D02*
X007571Y008036D01*
X007600Y008036D02*
X007700Y008036D01*
X007700Y008031D02*
X007772Y008043D01*
X007850Y008068D01*
X007923Y008105D01*
X007989Y008153D01*
X008047Y008211D01*
X008095Y008277D01*
X008132Y008350D01*
X008157Y008428D01*
X008169Y008500D01*
X007700Y008500D01*
X007700Y008600D01*
X008169Y008600D01*
X008157Y008672D01*
X008132Y008750D01*
X008095Y008823D01*
X008047Y008889D01*
X007989Y008947D01*
X007923Y008995D01*
X007850Y009032D01*
X007772Y009057D01*
X007700Y009069D01*
X007700Y008600D01*
X007600Y008600D01*
X007600Y009069D01*
X007528Y009057D01*
X007450Y009032D01*
X007377Y008995D01*
X007311Y008947D01*
X007253Y008889D01*
X007205Y008823D01*
X007168Y008750D01*
X007143Y008672D01*
X007131Y008600D01*
X007600Y008600D01*
X007600Y008500D01*
X007700Y008500D01*
X007700Y008031D01*
X007729Y008036D02*
X008367Y008036D01*
X008460Y008135D02*
X007963Y008135D01*
X008062Y008233D02*
X008460Y008233D01*
X008460Y008332D02*
X008122Y008332D01*
X008157Y008430D02*
X008460Y008430D01*
X008460Y008529D02*
X007700Y008529D01*
X007700Y008627D02*
X007600Y008627D01*
X007600Y008529D02*
X000300Y008529D01*
X000300Y008627D02*
X007136Y008627D01*
X007160Y008726D02*
X000300Y008726D01*
X000300Y008824D02*
X007206Y008824D01*
X007287Y008923D02*
X000300Y008923D01*
X000300Y009021D02*
X007429Y009021D01*
X007600Y009021D02*
X007700Y009021D01*
X007700Y008923D02*
X007600Y008923D01*
X007600Y008824D02*
X007700Y008824D01*
X007700Y008726D02*
X007600Y008726D01*
X007600Y008500D02*
X007131Y008500D01*
X007143Y008428D01*
X007168Y008350D01*
X007205Y008277D01*
X007253Y008211D01*
X007311Y008153D01*
X007377Y008105D01*
X007450Y008068D01*
X007528Y008043D01*
X007600Y008031D01*
X007600Y008500D01*
X007600Y008430D02*
X007700Y008430D01*
X007700Y008332D02*
X007600Y008332D01*
X007600Y008233D02*
X007700Y008233D01*
X007700Y008135D02*
X007600Y008135D01*
X007337Y008135D02*
X000300Y008135D01*
X000300Y008233D02*
X007238Y008233D01*
X007178Y008332D02*
X000300Y008332D01*
X000300Y008430D02*
X007143Y008430D01*
X007871Y009021D02*
X008602Y009021D01*
X008504Y008923D02*
X008013Y008923D01*
X008094Y008824D02*
X008460Y008824D01*
X008460Y008726D02*
X008140Y008726D01*
X008164Y008627D02*
X008460Y008627D01*
X008840Y008627D02*
X009136Y008627D01*
X009140Y008639D02*
X009114Y008557D01*
X009101Y008478D01*
X009600Y008478D01*
X009600Y008977D01*
X009521Y008964D01*
X009439Y008938D01*
X009362Y008898D01*
X009292Y008847D01*
X009230Y008786D01*
X009180Y008716D01*
X009140Y008639D01*
X009186Y008726D02*
X008844Y008726D01*
X008943Y008824D02*
X009268Y008824D01*
X009409Y008923D02*
X009041Y008923D01*
X009140Y009021D02*
X011000Y009021D01*
X011000Y008923D02*
X009891Y008923D01*
X009861Y008938D02*
X009779Y008964D01*
X009700Y008977D01*
X009700Y008478D01*
X009600Y008478D01*
X009600Y008378D01*
X009101Y008378D01*
X009114Y008299D01*
X009140Y008217D01*
X009180Y008140D01*
X009230Y008070D01*
X009292Y008008D01*
X009362Y007958D01*
X009439Y007918D01*
X009521Y007891D01*
X009600Y007879D01*
X009600Y008378D01*
X009700Y008378D01*
X009700Y008478D01*
X010199Y008478D01*
X010186Y008557D01*
X010160Y008639D01*
X010120Y008716D01*
X010070Y008786D01*
X010008Y008847D01*
X009938Y008898D01*
X009861Y008938D01*
X010032Y008824D02*
X011000Y008824D01*
X011000Y008726D02*
X010114Y008726D01*
X010164Y008627D02*
X011000Y008627D01*
X011000Y008529D02*
X010191Y008529D01*
X010199Y008378D02*
X009700Y008378D01*
X009700Y007879D01*
X009779Y007891D01*
X009861Y007918D01*
X009938Y007958D01*
X010008Y008008D01*
X010070Y008070D01*
X010120Y008140D01*
X010160Y008217D01*
X010186Y008299D01*
X010199Y008378D01*
X010192Y008332D02*
X011000Y008332D01*
X011000Y008430D02*
X009700Y008430D01*
X009700Y008332D02*
X009600Y008332D01*
X009600Y008430D02*
X008840Y008430D01*
X008840Y008332D02*
X009108Y008332D01*
X009135Y008233D02*
X008840Y008233D01*
X008840Y008135D02*
X009183Y008135D01*
X009264Y008036D02*
X008840Y008036D01*
X008806Y007938D02*
X009401Y007938D01*
X009600Y007938D02*
X009700Y007938D01*
X009700Y008036D02*
X009600Y008036D01*
X009600Y008135D02*
X009700Y008135D01*
X009700Y008233D02*
X009600Y008233D01*
X009600Y008529D02*
X009700Y008529D01*
X009700Y008627D02*
X009600Y008627D01*
X009600Y008726D02*
X009700Y008726D01*
X009700Y008824D02*
X009600Y008824D01*
X009600Y008923D02*
X009700Y008923D01*
X009337Y009218D02*
X011000Y009218D01*
X011000Y009120D02*
X009238Y009120D01*
X008996Y009415D02*
X000300Y009415D01*
X000300Y009317D02*
X008898Y009317D01*
X008799Y009218D02*
X000300Y009218D01*
X000300Y009120D02*
X008701Y009120D01*
X009095Y009514D02*
X000300Y009514D01*
X000300Y009612D02*
X009140Y009612D01*
X009140Y009711D02*
X000300Y009711D01*
X000300Y009809D02*
X005914Y009809D01*
X005996Y009775D02*
X006304Y009775D01*
X006589Y009893D01*
X006807Y010111D01*
X006925Y010396D01*
X006925Y010704D01*
X006807Y010989D01*
X006589Y011207D01*
X006304Y011325D01*
X005996Y011325D01*
X005711Y011207D01*
X005493Y010989D01*
X005375Y010704D01*
X005375Y010396D01*
X005493Y010111D01*
X005711Y009893D01*
X005996Y009775D01*
X005696Y009908D02*
X000300Y009908D01*
X000300Y010006D02*
X005598Y010006D01*
X005499Y010105D02*
X000300Y010105D01*
X000300Y010203D02*
X005455Y010203D01*
X005414Y010302D02*
X000300Y010302D01*
X000300Y010400D02*
X005375Y010400D01*
X005375Y010499D02*
X000300Y010499D01*
X000300Y010597D02*
X005375Y010597D01*
X005375Y010696D02*
X000300Y010696D01*
X000300Y010794D02*
X005412Y010794D01*
X005453Y010893D02*
X000300Y010893D01*
X000300Y010991D02*
X005495Y010991D01*
X005594Y011090D02*
X000300Y011090D01*
X000300Y011188D02*
X005692Y011188D01*
X005903Y011287D02*
X000300Y011287D01*
X000300Y011385D02*
X009139Y011385D01*
X009140Y011389D02*
X009114Y011307D01*
X009101Y011228D01*
X009600Y011228D01*
X009600Y011727D01*
X009521Y011714D01*
X009439Y011688D01*
X009362Y011648D01*
X009292Y011597D01*
X009230Y011536D01*
X009180Y011466D01*
X009140Y011389D01*
X009110Y011287D02*
X006397Y011287D01*
X006608Y011188D02*
X009600Y011188D01*
X009600Y011228D02*
X009600Y011128D01*
X009101Y011128D01*
X009114Y011049D01*
X009140Y010967D01*
X009180Y010890D01*
X009230Y010820D01*
X009292Y010758D01*
X009362Y010708D01*
X009439Y010668D01*
X009521Y010641D01*
X009600Y010629D01*
X009600Y011128D01*
X009700Y011128D01*
X009700Y011228D01*
X009600Y011228D01*
X009600Y011287D02*
X009700Y011287D01*
X009700Y011228D02*
X009700Y011727D01*
X009779Y011714D01*
X009861Y011688D01*
X009938Y011648D01*
X010008Y011597D01*
X010070Y011536D01*
X010120Y011466D01*
X010160Y011389D01*
X010186Y011307D01*
X010199Y011228D01*
X009700Y011228D01*
X009700Y011188D02*
X011000Y011188D01*
X011000Y011090D02*
X010193Y011090D01*
X010199Y011128D02*
X010186Y011049D01*
X010160Y010967D01*
X010120Y010890D01*
X010070Y010820D01*
X010008Y010758D01*
X009938Y010708D01*
X009861Y010668D01*
X009779Y010641D01*
X009700Y010629D01*
X009700Y011128D01*
X010199Y011128D01*
X010168Y010991D02*
X011000Y010991D01*
X011000Y010893D02*
X010122Y010893D01*
X010044Y010794D02*
X011000Y010794D01*
X011000Y010696D02*
X009915Y010696D01*
X009700Y010696D02*
X009600Y010696D01*
X009600Y010794D02*
X009700Y010794D01*
X009700Y010893D02*
X009600Y010893D01*
X009600Y010991D02*
X009700Y010991D01*
X009700Y011090D02*
X009600Y011090D01*
X009600Y011385D02*
X009700Y011385D01*
X009700Y011484D02*
X009600Y011484D01*
X009600Y011582D02*
X009700Y011582D01*
X009700Y011681D02*
X009600Y011681D01*
X009425Y011681D02*
X000300Y011681D01*
X000300Y011779D02*
X011000Y011779D01*
X011000Y011681D02*
X009875Y011681D01*
X010024Y011582D02*
X011000Y011582D01*
X011000Y011484D02*
X010108Y011484D01*
X010161Y011385D02*
X011000Y011385D01*
X011000Y011287D02*
X010190Y011287D01*
X009385Y010696D02*
X006925Y010696D01*
X006925Y010597D02*
X011000Y010597D01*
X011000Y010499D02*
X006925Y010499D01*
X006925Y010400D02*
X011000Y010400D01*
X011000Y010302D02*
X010104Y010302D01*
X010160Y010203D02*
X011000Y010203D01*
X011000Y010105D02*
X010160Y010105D01*
X010160Y010006D02*
X011000Y010006D01*
X011000Y009908D02*
X010160Y009908D01*
X010160Y009809D02*
X011000Y009809D01*
X011000Y009711D02*
X010160Y009711D01*
X010160Y009612D02*
X011000Y009612D01*
X011000Y009514D02*
X010160Y009514D01*
X010160Y009415D02*
X011000Y009415D01*
X011000Y009317D02*
X010122Y009317D01*
X009196Y010302D02*
X006886Y010302D01*
X006845Y010203D02*
X009140Y010203D01*
X009140Y010105D02*
X006801Y010105D01*
X006702Y010006D02*
X009140Y010006D01*
X009140Y009908D02*
X006604Y009908D01*
X006386Y009809D02*
X009140Y009809D01*
X009256Y010794D02*
X006888Y010794D01*
X006847Y010893D02*
X009178Y010893D01*
X009132Y010991D02*
X006805Y010991D01*
X006706Y011090D02*
X009107Y011090D01*
X009192Y011484D02*
X000300Y011484D01*
X000300Y011582D02*
X009276Y011582D01*
X011000Y011878D02*
X000300Y011878D01*
X000300Y011900D02*
X011000Y011900D01*
X011000Y000700D01*
X000300Y000700D01*
X000300Y011900D01*
X006200Y006100D02*
X006200Y006050D01*
X006200Y006100D02*
X007650Y007550D01*
X007928Y007150D02*
X009140Y007150D01*
X009140Y007248D02*
X008027Y007248D01*
X008085Y007347D02*
X009140Y007347D01*
X009140Y007445D02*
X008314Y007445D01*
X008412Y007544D02*
X009188Y007544D01*
X009140Y007051D02*
X007377Y007051D01*
X007378Y006957D02*
X007243Y006822D01*
X007170Y006645D01*
X007170Y006455D01*
X007243Y006278D01*
X007378Y006143D01*
X007555Y006070D01*
X007745Y006070D01*
X007922Y006143D01*
X008057Y006278D01*
X008130Y006455D01*
X008130Y006645D01*
X008057Y006822D01*
X007922Y006957D01*
X007745Y007030D01*
X007555Y007030D01*
X007378Y006957D01*
X007374Y006953D02*
X007279Y006953D01*
X007275Y006854D02*
X007180Y006854D01*
X007216Y006756D02*
X007082Y006756D01*
X007175Y006657D02*
X006983Y006657D01*
X006885Y006559D02*
X007170Y006559D01*
X007170Y006460D02*
X006786Y006460D01*
X006688Y006362D02*
X007209Y006362D01*
X007258Y006263D02*
X006589Y006263D01*
X006491Y006165D02*
X007357Y006165D01*
X007404Y005968D02*
X006431Y005968D01*
X006445Y006066D02*
X008420Y006066D01*
X008404Y005968D02*
X007896Y005968D01*
X008010Y005869D02*
X008290Y005869D01*
X008222Y005771D02*
X008078Y005771D01*
X008119Y005672D02*
X008181Y005672D01*
X008170Y005574D02*
X008130Y005574D01*
X008130Y005475D02*
X008170Y005475D01*
X008202Y005377D02*
X008098Y005377D01*
X008057Y005278D02*
X008243Y005278D01*
X008342Y005180D02*
X007958Y005180D01*
X007290Y005869D02*
X006365Y005869D01*
X007943Y006165D02*
X008439Y006165D01*
X008538Y006263D02*
X008042Y006263D01*
X008091Y006362D02*
X008636Y006362D01*
X008735Y006460D02*
X008130Y006460D01*
X008130Y006559D02*
X008833Y006559D01*
X008932Y006657D02*
X008125Y006657D01*
X008084Y006756D02*
X009030Y006756D01*
X009129Y006854D02*
X008025Y006854D01*
X007926Y006953D02*
X009140Y006953D01*
X009385Y006460D02*
X011000Y006460D01*
X011000Y006362D02*
X009287Y006362D01*
X009188Y006263D02*
X011000Y006263D01*
X011000Y006165D02*
X009090Y006165D01*
X008991Y006066D02*
X009584Y006066D01*
X009600Y006066D02*
X009700Y006066D01*
X009700Y006069D02*
X009700Y005600D01*
X010169Y005600D01*
X010157Y005672D01*
X011000Y005672D01*
X011000Y005574D02*
X009700Y005574D01*
X009700Y005672D02*
X009600Y005672D01*
X009600Y005574D02*
X009130Y005574D01*
X009130Y005475D02*
X009135Y005475D01*
X009160Y005377D02*
X009098Y005377D01*
X009057Y005278D02*
X009205Y005278D01*
X009285Y005180D02*
X008958Y005180D01*
X008880Y005081D02*
X009425Y005081D01*
X009361Y004983D02*
X008880Y004983D01*
X008995Y004884D02*
X009250Y004884D01*
X009186Y004786D02*
X009072Y004786D01*
X009113Y004687D02*
X009148Y004687D01*
X009130Y004589D02*
X009600Y004589D01*
X009600Y004687D02*
X009700Y004687D01*
X009700Y004589D02*
X011000Y004589D01*
X011000Y004687D02*
X010152Y004687D01*
X010114Y004786D02*
X011000Y004786D01*
X011000Y004884D02*
X010050Y004884D01*
X009939Y004983D02*
X011000Y004983D01*
X011000Y005081D02*
X009875Y005081D01*
X010015Y005180D02*
X011000Y005180D01*
X011000Y005278D02*
X010095Y005278D01*
X010140Y005377D02*
X011000Y005377D01*
X011000Y005475D02*
X010165Y005475D01*
X010157Y005672D02*
X010132Y005750D01*
X010095Y005823D01*
X010047Y005889D01*
X009989Y005947D01*
X009923Y005995D01*
X009850Y006032D01*
X009772Y006057D01*
X009700Y006069D01*
X009716Y006066D02*
X011000Y006066D01*
X011000Y005968D02*
X009960Y005968D01*
X010061Y005869D02*
X011000Y005869D01*
X011000Y005771D02*
X010121Y005771D01*
X009700Y005771D02*
X009600Y005771D01*
X009600Y005869D02*
X009700Y005869D01*
X009700Y005968D02*
X009600Y005968D01*
X009340Y005968D02*
X008896Y005968D01*
X009010Y005869D02*
X009239Y005869D01*
X009179Y005771D02*
X009078Y005771D01*
X009600Y005475D02*
X009700Y005475D01*
X009700Y005377D02*
X009600Y005377D01*
X009600Y005278D02*
X009700Y005278D01*
X009700Y005180D02*
X009600Y005180D01*
X009600Y005081D02*
X009700Y005081D01*
X009700Y004983D02*
X009600Y004983D01*
X009600Y004884D02*
X009700Y004884D01*
X009700Y004786D02*
X009600Y004786D01*
X009600Y004490D02*
X009700Y004490D01*
X009700Y004392D02*
X009600Y004392D01*
X009600Y004293D02*
X009700Y004293D01*
X009700Y004195D02*
X009600Y004195D01*
X009600Y004096D02*
X009700Y004096D01*
X009700Y003998D02*
X009600Y003998D01*
X009600Y003899D02*
X009700Y003899D01*
X009700Y003801D02*
X009600Y003801D01*
X009600Y003702D02*
X009700Y003702D01*
X009700Y003604D02*
X009600Y003604D01*
X009600Y003505D02*
X009130Y003505D01*
X009130Y003604D02*
X009132Y003604D01*
X009153Y003702D02*
X009107Y003702D01*
X009066Y003801D02*
X009194Y003801D01*
X009264Y003899D02*
X008980Y003899D01*
X008880Y003998D02*
X009383Y003998D01*
X009396Y004096D02*
X008880Y004096D01*
X008973Y004195D02*
X009270Y004195D01*
X009197Y004293D02*
X009063Y004293D01*
X009104Y004392D02*
X009155Y004392D01*
X009133Y004490D02*
X009130Y004490D01*
X009904Y004096D02*
X011000Y004096D01*
X011000Y003998D02*
X009917Y003998D01*
X010036Y003899D02*
X011000Y003899D01*
X011000Y003801D02*
X010106Y003801D01*
X010147Y003702D02*
X011000Y003702D01*
X011000Y003604D02*
X010168Y003604D01*
X010150Y003407D02*
X011000Y003407D01*
X011000Y003505D02*
X009700Y003505D01*
X009700Y003407D02*
X009600Y003407D01*
X009600Y003308D02*
X009700Y003308D01*
X009700Y003210D02*
X009600Y003210D01*
X009600Y003111D02*
X009700Y003111D01*
X009700Y003013D02*
X009600Y003013D01*
X009600Y002914D02*
X009700Y002914D01*
X009700Y002816D02*
X009600Y002816D01*
X009600Y002717D02*
X009700Y002717D01*
X009700Y002619D02*
X009600Y002619D01*
X009600Y002520D02*
X009130Y002520D01*
X009130Y002619D02*
X009134Y002619D01*
X009158Y002717D02*
X009100Y002717D01*
X009060Y002816D02*
X009202Y002816D01*
X009279Y002914D02*
X008965Y002914D01*
X008880Y003013D02*
X009412Y003013D01*
X009370Y003111D02*
X008880Y003111D01*
X008988Y003210D02*
X009255Y003210D01*
X009190Y003308D02*
X009069Y003308D01*
X009110Y003407D02*
X009150Y003407D01*
X009930Y003111D02*
X011000Y003111D01*
X011000Y003013D02*
X009888Y003013D01*
X010021Y002914D02*
X011000Y002914D01*
X011000Y002816D02*
X010098Y002816D01*
X010142Y002717D02*
X011000Y002717D01*
X011000Y002619D02*
X010166Y002619D01*
X010155Y002422D02*
X011000Y002422D01*
X011000Y002520D02*
X009700Y002520D01*
X009700Y002422D02*
X009600Y002422D01*
X009600Y002323D02*
X009700Y002323D01*
X009700Y002225D02*
X009600Y002225D01*
X009600Y002126D02*
X009700Y002126D01*
X009700Y002028D02*
X009600Y002028D01*
X009600Y001929D02*
X009700Y001929D01*
X009700Y001831D02*
X009600Y001831D01*
X009600Y001732D02*
X009700Y001732D01*
X009700Y001634D02*
X009600Y001634D01*
X009600Y001535D02*
X009130Y001535D01*
X009130Y001634D02*
X009137Y001634D01*
X009162Y001732D02*
X009094Y001732D01*
X009048Y001831D02*
X009211Y001831D01*
X009294Y001929D02*
X008950Y001929D01*
X008880Y002028D02*
X009442Y002028D01*
X009349Y002126D02*
X008881Y002126D01*
X009003Y002225D02*
X009244Y002225D01*
X009182Y002323D02*
X009076Y002323D01*
X009116Y002422D02*
X009145Y002422D01*
X008419Y002126D02*
X007881Y002126D01*
X007752Y002028D02*
X008420Y002028D01*
X008350Y001929D02*
X007950Y001929D01*
X008048Y001831D02*
X008252Y001831D01*
X008206Y001732D02*
X008094Y001732D01*
X008130Y001634D02*
X008170Y001634D01*
X008170Y001535D02*
X008130Y001535D01*
X008123Y001437D02*
X008177Y001437D01*
X008218Y001338D02*
X008082Y001338D01*
X008018Y001240D02*
X008282Y001240D01*
X008383Y001141D02*
X007917Y001141D01*
X008917Y001141D02*
X009328Y001141D01*
X009233Y001240D02*
X009018Y001240D01*
X009082Y001338D02*
X009174Y001338D01*
X009141Y001437D02*
X009123Y001437D01*
X009600Y001437D02*
X009700Y001437D01*
X009700Y001338D02*
X009600Y001338D01*
X009600Y001240D02*
X009700Y001240D01*
X009700Y001141D02*
X009600Y001141D01*
X010163Y001634D02*
X011000Y001634D01*
X011000Y001732D02*
X010138Y001732D01*
X010089Y001831D02*
X011000Y001831D01*
X011000Y001929D02*
X010006Y001929D01*
X009858Y002028D02*
X011000Y002028D01*
X011000Y002126D02*
X009951Y002126D01*
X010056Y002225D02*
X011000Y002225D01*
X011000Y002323D02*
X010118Y002323D01*
X010045Y003210D02*
X011000Y003210D01*
X011000Y003308D02*
X010110Y003308D01*
X010030Y004195D02*
X011000Y004195D01*
X011000Y004293D02*
X010103Y004293D01*
X010145Y004392D02*
X011000Y004392D01*
X011000Y004490D02*
X010167Y004490D01*
X010114Y006559D02*
X011000Y006559D01*
X011000Y006657D02*
X010160Y006657D01*
X010160Y006756D02*
X011000Y006756D01*
X011000Y006854D02*
X010160Y006854D01*
X010160Y006953D02*
X011000Y006953D01*
X011000Y007051D02*
X010160Y007051D01*
X010160Y007150D02*
X011000Y007150D01*
X011000Y007248D02*
X010160Y007248D01*
X010160Y007347D02*
X011000Y007347D01*
X011000Y007445D02*
X010160Y007445D01*
X010112Y007544D02*
X011000Y007544D01*
X011000Y007642D02*
X008511Y007642D01*
X008609Y007741D02*
X011000Y007741D01*
X011000Y007839D02*
X008708Y007839D01*
X008269Y007938D02*
X007941Y007938D01*
X008040Y007839D02*
X008170Y007839D01*
X008840Y008529D02*
X009109Y008529D01*
X009899Y007938D02*
X011000Y007938D01*
X011000Y008036D02*
X010036Y008036D01*
X010117Y008135D02*
X011000Y008135D01*
X011000Y008233D02*
X010165Y008233D01*
X011000Y000944D02*
X001640Y000944D01*
X001474Y000846D02*
X011000Y000846D01*
X011000Y000747D02*
X000300Y000747D01*
X000300Y000846D02*
X000826Y000846D01*
X000660Y000944D02*
X000300Y000944D01*
X000300Y001043D02*
X000561Y001043D01*
X000481Y001141D02*
X000300Y001141D01*
X000300Y001240D02*
X000440Y001240D01*
X000399Y001338D02*
X000300Y001338D01*
X000300Y001437D02*
X000375Y001437D01*
X000375Y001535D02*
X000300Y001535D01*
X000300Y001634D02*
X000375Y001634D01*
X000387Y001732D02*
X000300Y001732D01*
X000300Y001831D02*
X000427Y001831D01*
X000468Y001929D02*
X000300Y001929D01*
X000300Y002028D02*
X000531Y002028D01*
X000630Y002126D02*
X000300Y002126D01*
X000300Y002225D02*
X000753Y002225D01*
X000991Y002323D02*
X000300Y002323D01*
D15*
X008650Y002550D02*
X008650Y001550D01*
X008650Y002550D02*
X008650Y003550D01*
X008650Y004550D01*
X008650Y005550D01*
X008650Y006050D01*
X009650Y007050D01*
D16*
X006200Y006050D03*
X004150Y004050D03*
X003150Y004050D03*
D17*
X007650Y007550D02*
X008150Y007550D01*
X008650Y008050D01*
X008650Y008800D01*
X009650Y009800D01*
M02*
