G75*
G70*
%OFA0B0*%
%FSLAX24Y24*%
%IPPOS*%
%LPD*%
%AMOC8*
5,1,8,0,0,1.08239X$1,22.5*
%
%ADD10C,0.0000*%
%ADD11C,0.0740*%
%ADD12OC8,0.0680*%
%ADD13R,0.0800X0.0800*%
%ADD14C,0.0800*%
%ADD15C,0.0100*%
%ADD16C,0.0240*%
%ADD17C,0.0160*%
D10*
X000150Y000841D02*
X000150Y012341D01*
X011150Y012341D01*
X011150Y000841D01*
X000150Y000841D01*
X000525Y001841D02*
X000527Y001891D01*
X000533Y001940D01*
X000543Y001989D01*
X000556Y002036D01*
X000574Y002083D01*
X000595Y002128D01*
X000619Y002171D01*
X000647Y002212D01*
X000678Y002251D01*
X000712Y002287D01*
X000749Y002321D01*
X000789Y002351D01*
X000830Y002378D01*
X000874Y002402D01*
X000919Y002422D01*
X000966Y002438D01*
X001014Y002451D01*
X001063Y002460D01*
X001113Y002465D01*
X001162Y002466D01*
X001212Y002463D01*
X001261Y002456D01*
X001310Y002445D01*
X001357Y002431D01*
X001403Y002412D01*
X001448Y002390D01*
X001491Y002365D01*
X001531Y002336D01*
X001569Y002304D01*
X001605Y002270D01*
X001638Y002232D01*
X001667Y002192D01*
X001693Y002150D01*
X001716Y002106D01*
X001735Y002060D01*
X001751Y002013D01*
X001763Y001964D01*
X001771Y001915D01*
X001775Y001866D01*
X001775Y001816D01*
X001771Y001767D01*
X001763Y001718D01*
X001751Y001669D01*
X001735Y001622D01*
X001716Y001576D01*
X001693Y001532D01*
X001667Y001490D01*
X001638Y001450D01*
X001605Y001412D01*
X001569Y001378D01*
X001531Y001346D01*
X001491Y001317D01*
X001448Y001292D01*
X001403Y001270D01*
X001357Y001251D01*
X001310Y001237D01*
X001261Y001226D01*
X001212Y001219D01*
X001162Y001216D01*
X001113Y001217D01*
X001063Y001222D01*
X001014Y001231D01*
X000966Y001244D01*
X000919Y001260D01*
X000874Y001280D01*
X000830Y001304D01*
X000789Y001331D01*
X000749Y001361D01*
X000712Y001395D01*
X000678Y001431D01*
X000647Y001470D01*
X000619Y001511D01*
X000595Y001554D01*
X000574Y001599D01*
X000556Y001646D01*
X000543Y001693D01*
X000533Y001742D01*
X000527Y001791D01*
X000525Y001841D01*
X005525Y010841D02*
X005527Y010891D01*
X005533Y010940D01*
X005543Y010989D01*
X005556Y011036D01*
X005574Y011083D01*
X005595Y011128D01*
X005619Y011171D01*
X005647Y011212D01*
X005678Y011251D01*
X005712Y011287D01*
X005749Y011321D01*
X005789Y011351D01*
X005830Y011378D01*
X005874Y011402D01*
X005919Y011422D01*
X005966Y011438D01*
X006014Y011451D01*
X006063Y011460D01*
X006113Y011465D01*
X006162Y011466D01*
X006212Y011463D01*
X006261Y011456D01*
X006310Y011445D01*
X006357Y011431D01*
X006403Y011412D01*
X006448Y011390D01*
X006491Y011365D01*
X006531Y011336D01*
X006569Y011304D01*
X006605Y011270D01*
X006638Y011232D01*
X006667Y011192D01*
X006693Y011150D01*
X006716Y011106D01*
X006735Y011060D01*
X006751Y011013D01*
X006763Y010964D01*
X006771Y010915D01*
X006775Y010866D01*
X006775Y010816D01*
X006771Y010767D01*
X006763Y010718D01*
X006751Y010669D01*
X006735Y010622D01*
X006716Y010576D01*
X006693Y010532D01*
X006667Y010490D01*
X006638Y010450D01*
X006605Y010412D01*
X006569Y010378D01*
X006531Y010346D01*
X006491Y010317D01*
X006448Y010292D01*
X006403Y010270D01*
X006357Y010251D01*
X006310Y010237D01*
X006261Y010226D01*
X006212Y010219D01*
X006162Y010216D01*
X006113Y010217D01*
X006063Y010222D01*
X006014Y010231D01*
X005966Y010244D01*
X005919Y010260D01*
X005874Y010280D01*
X005830Y010304D01*
X005789Y010331D01*
X005749Y010361D01*
X005712Y010395D01*
X005678Y010431D01*
X005647Y010470D01*
X005619Y010511D01*
X005595Y010554D01*
X005574Y010599D01*
X005556Y010646D01*
X005543Y010693D01*
X005533Y010742D01*
X005527Y010791D01*
X005525Y010841D01*
D11*
X004280Y011031D03*
X004280Y009251D03*
X004950Y008241D03*
X007650Y007841D03*
X007650Y008841D03*
X007650Y006841D03*
X007650Y005841D03*
X007650Y004841D03*
X007650Y003841D03*
X007650Y002841D03*
X007650Y001841D03*
X008650Y001841D03*
X008650Y002841D03*
X008650Y003841D03*
X008650Y004841D03*
X008650Y005841D03*
X009650Y005841D03*
X009650Y004841D03*
X009650Y003841D03*
X009650Y002841D03*
X009650Y001841D03*
X001720Y009251D03*
X000950Y008241D03*
X001720Y011031D03*
X001350Y005341D03*
X001350Y004341D03*
X001350Y003341D03*
D12*
X002850Y003841D03*
X002850Y004841D03*
X002850Y005841D03*
X002850Y002841D03*
X005850Y002841D03*
X005850Y003841D03*
X005850Y004841D03*
X005850Y005841D03*
D13*
X009650Y007341D03*
X009650Y010091D03*
D14*
X009650Y008719D03*
X009650Y011469D03*
X004150Y007141D03*
X003050Y007141D03*
D15*
X003250Y007610D02*
X003151Y007651D01*
X002949Y007651D01*
X002761Y007573D01*
X002618Y007429D01*
X002540Y007242D01*
X002540Y007039D01*
X002618Y006852D01*
X002761Y006708D01*
X002949Y006631D01*
X003151Y006631D01*
X003339Y006708D01*
X003482Y006852D01*
X003560Y007039D01*
X003560Y007242D01*
X003519Y007341D01*
X004229Y008051D01*
X004509Y008051D01*
X004543Y007969D01*
X004678Y007834D01*
X004012Y007834D01*
X003914Y007736D02*
X007174Y007736D01*
X007170Y007745D02*
X007243Y007569D01*
X007378Y007434D01*
X007555Y007361D01*
X007745Y007361D01*
X007922Y007434D01*
X008057Y007569D01*
X008091Y007651D01*
X008229Y007651D01*
X008340Y007762D01*
X008400Y007822D01*
X008460Y007762D01*
X008460Y006919D01*
X008041Y006501D01*
X007989Y006501D01*
X008057Y006569D01*
X008130Y006745D01*
X008130Y006936D01*
X008057Y007112D01*
X007922Y007247D01*
X007745Y007321D01*
X007555Y007321D01*
X007378Y007247D01*
X007243Y007112D01*
X007209Y007031D01*
X005221Y007031D01*
X004221Y006031D01*
X003296Y006031D01*
X003036Y006291D01*
X002664Y006291D01*
X002541Y006168D01*
X001140Y007569D01*
X001140Y007800D01*
X001222Y007834D01*
X003475Y007834D01*
X003573Y007933D02*
X001321Y007933D01*
X001357Y007969D02*
X001430Y008145D01*
X001430Y008336D01*
X001357Y008512D01*
X001304Y008566D01*
X001543Y008804D01*
X001625Y008771D01*
X001815Y008771D01*
X001992Y008844D01*
X002127Y008979D01*
X002200Y009155D01*
X002200Y009346D01*
X002127Y009522D01*
X001992Y009657D01*
X001815Y009731D01*
X001625Y009731D01*
X001448Y009657D01*
X001313Y009522D01*
X001240Y009346D01*
X001240Y009155D01*
X001274Y009073D01*
X000921Y008721D01*
X000300Y008721D01*
X000300Y008819D02*
X001020Y008819D01*
X001118Y008918D02*
X000300Y008918D01*
X000300Y009016D02*
X001217Y009016D01*
X001257Y009115D02*
X000300Y009115D01*
X000300Y009213D02*
X001240Y009213D01*
X001240Y009312D02*
X000300Y009312D01*
X000300Y009410D02*
X001267Y009410D01*
X001307Y009509D02*
X000300Y009509D01*
X000300Y009607D02*
X001398Y009607D01*
X001564Y009706D02*
X000300Y009706D01*
X000300Y009804D02*
X009095Y009804D01*
X009140Y009849D02*
X008571Y009281D01*
X008460Y009169D01*
X008460Y008419D01*
X008321Y008281D01*
X008210Y008169D01*
X008085Y008044D01*
X008057Y008112D01*
X007922Y008247D01*
X007745Y008321D01*
X007555Y008321D01*
X007473Y008287D01*
X007440Y008319D01*
X007329Y008431D01*
X005391Y008431D01*
X005357Y008512D01*
X005222Y008647D01*
X005045Y008721D01*
X004855Y008721D01*
X004678Y008647D01*
X004543Y008512D01*
X004509Y008431D01*
X004071Y008431D01*
X003250Y007610D01*
X003278Y007637D02*
X003184Y007637D01*
X003376Y007736D02*
X001140Y007736D01*
X001140Y007637D02*
X002916Y007637D01*
X002727Y007539D02*
X001171Y007539D01*
X001269Y007440D02*
X002628Y007440D01*
X002581Y007342D02*
X001368Y007342D01*
X001466Y007243D02*
X002540Y007243D01*
X002540Y007145D02*
X001565Y007145D01*
X001663Y007046D02*
X002540Y007046D01*
X002578Y006948D02*
X001762Y006948D01*
X001860Y006849D02*
X002620Y006849D01*
X002719Y006751D02*
X001959Y006751D01*
X002057Y006652D02*
X002897Y006652D01*
X003203Y006652D02*
X003897Y006652D01*
X003862Y006670D02*
X003939Y006631D01*
X004021Y006604D01*
X004100Y006592D01*
X004100Y007091D01*
X003601Y007091D01*
X003614Y007012D01*
X003640Y006929D01*
X003680Y006852D01*
X003730Y006782D01*
X003792Y006721D01*
X003862Y006670D01*
X003762Y006751D02*
X003381Y006751D01*
X003480Y006849D02*
X003682Y006849D01*
X003634Y006948D02*
X003522Y006948D01*
X003560Y007046D02*
X003608Y007046D01*
X003560Y007145D02*
X004100Y007145D01*
X004100Y007191D02*
X004100Y007091D01*
X004200Y007091D01*
X004200Y007191D01*
X004100Y007191D01*
X004100Y007689D01*
X004021Y007677D01*
X003939Y007650D01*
X003862Y007611D01*
X003792Y007560D01*
X003730Y007499D01*
X003680Y007429D01*
X003640Y007352D01*
X003614Y007269D01*
X003601Y007191D01*
X004100Y007191D01*
X004100Y007243D02*
X004200Y007243D01*
X004200Y007191D02*
X004200Y007689D01*
X004279Y007677D01*
X004361Y007650D01*
X004438Y007611D01*
X004508Y007560D01*
X004570Y007499D01*
X004620Y007429D01*
X004660Y007352D01*
X004686Y007269D01*
X004699Y007191D01*
X004200Y007191D01*
X004200Y007145D02*
X007275Y007145D01*
X007216Y007046D02*
X004692Y007046D01*
X004686Y007012D02*
X004699Y007091D01*
X004200Y007091D01*
X004200Y006592D01*
X004279Y006604D01*
X004361Y006631D01*
X004438Y006670D01*
X004508Y006721D01*
X004570Y006782D01*
X004620Y006852D01*
X004660Y006929D01*
X004686Y007012D01*
X004666Y006948D02*
X005138Y006948D01*
X005040Y006849D02*
X004618Y006849D01*
X004538Y006751D02*
X004941Y006751D01*
X004843Y006652D02*
X004403Y006652D01*
X004200Y006652D02*
X004100Y006652D01*
X004100Y006751D02*
X004200Y006751D01*
X004200Y006849D02*
X004100Y006849D01*
X004100Y006948D02*
X004200Y006948D01*
X004200Y007046D02*
X004100Y007046D01*
X004100Y007342D02*
X004200Y007342D01*
X004200Y007440D02*
X004100Y007440D01*
X004100Y007539D02*
X004200Y007539D01*
X004200Y007637D02*
X004100Y007637D01*
X003913Y007637D02*
X003815Y007637D01*
X003770Y007539D02*
X003717Y007539D01*
X003688Y007440D02*
X003618Y007440D01*
X003637Y007342D02*
X003520Y007342D01*
X003560Y007243D02*
X003609Y007243D01*
X004111Y007933D02*
X004579Y007933D01*
X004517Y008031D02*
X004209Y008031D01*
X003967Y008327D02*
X001430Y008327D01*
X001430Y008228D02*
X003869Y008228D01*
X003770Y008130D02*
X001424Y008130D01*
X001383Y008031D02*
X003672Y008031D01*
X004066Y008425D02*
X001393Y008425D01*
X001346Y008524D02*
X004554Y008524D01*
X004653Y008622D02*
X001360Y008622D01*
X001459Y008721D02*
X007143Y008721D01*
X007143Y008719D02*
X007168Y008641D01*
X007205Y008568D01*
X007253Y008502D01*
X007311Y008444D01*
X007377Y008396D01*
X007450Y008359D01*
X007528Y008333D01*
X007600Y008322D01*
X007600Y008791D01*
X007131Y008791D01*
X007143Y008719D01*
X007178Y008622D02*
X005247Y008622D01*
X005346Y008524D02*
X007238Y008524D01*
X007334Y008425D02*
X007337Y008425D01*
X007433Y008327D02*
X007571Y008327D01*
X007600Y008327D02*
X007700Y008327D01*
X007700Y008322D02*
X007772Y008333D01*
X007850Y008359D01*
X007923Y008396D01*
X007989Y008444D01*
X008047Y008502D01*
X008095Y008568D01*
X008132Y008641D01*
X008157Y008719D01*
X008169Y008791D01*
X007700Y008791D01*
X007700Y008891D01*
X007600Y008891D01*
X007600Y009359D01*
X007528Y009348D01*
X007450Y009322D01*
X007377Y009285D01*
X007311Y009237D01*
X007253Y009179D01*
X007205Y009113D01*
X007168Y009040D01*
X007143Y008962D01*
X007131Y008891D01*
X007600Y008891D01*
X007600Y008791D01*
X007700Y008791D01*
X007700Y008322D01*
X007729Y008327D02*
X008367Y008327D01*
X008321Y008281D02*
X008321Y008281D01*
X008269Y008228D02*
X007941Y008228D01*
X008040Y008130D02*
X008170Y008130D01*
X008210Y008169D02*
X008210Y008169D01*
X007963Y008425D02*
X008460Y008425D01*
X008460Y008524D02*
X008062Y008524D01*
X008122Y008622D02*
X008460Y008622D01*
X008460Y008721D02*
X008157Y008721D01*
X008169Y008891D02*
X008157Y008962D01*
X008132Y009040D01*
X008095Y009113D01*
X008047Y009179D01*
X007989Y009237D01*
X007923Y009285D01*
X007850Y009322D01*
X007772Y009348D01*
X007700Y009359D01*
X007700Y008891D01*
X008169Y008891D01*
X008164Y008918D02*
X008460Y008918D01*
X008460Y009016D02*
X008140Y009016D01*
X008094Y009115D02*
X008460Y009115D01*
X008504Y009213D02*
X008013Y009213D01*
X007871Y009312D02*
X008602Y009312D01*
X008701Y009410D02*
X004733Y009410D01*
X004760Y009346D02*
X004687Y009522D01*
X004552Y009657D01*
X004375Y009731D01*
X004185Y009731D01*
X004008Y009657D01*
X003873Y009522D01*
X003800Y009346D01*
X003800Y009155D01*
X003873Y008979D01*
X004008Y008844D01*
X004185Y008771D01*
X004375Y008771D01*
X004552Y008844D01*
X004687Y008979D01*
X004760Y009155D01*
X004760Y009346D01*
X004760Y009312D02*
X007429Y009312D01*
X007287Y009213D02*
X004760Y009213D01*
X004743Y009115D02*
X007206Y009115D01*
X007160Y009016D02*
X004702Y009016D01*
X004626Y008918D02*
X007136Y008918D01*
X007600Y008918D02*
X007700Y008918D01*
X007700Y009016D02*
X007600Y009016D01*
X007600Y009115D02*
X007700Y009115D01*
X007700Y009213D02*
X007600Y009213D01*
X007600Y009312D02*
X007700Y009312D01*
X007700Y008819D02*
X008460Y008819D01*
X008840Y008819D02*
X009109Y008819D01*
X009114Y008847D02*
X009101Y008769D01*
X009600Y008769D01*
X009600Y009267D01*
X009521Y009255D01*
X009439Y009228D01*
X009362Y009189D01*
X009292Y009138D01*
X009230Y009077D01*
X009180Y009007D01*
X009140Y008930D01*
X009114Y008847D01*
X009136Y008918D02*
X008840Y008918D01*
X008840Y009012D02*
X009409Y009581D01*
X010096Y009581D01*
X010160Y009645D01*
X010160Y010536D01*
X010096Y010601D01*
X009204Y010601D01*
X009140Y010536D01*
X009140Y009849D01*
X009140Y009903D02*
X000300Y009903D01*
X000300Y010001D02*
X009140Y010001D01*
X009140Y010100D02*
X006386Y010100D01*
X006304Y010066D02*
X006589Y010184D01*
X006807Y010402D01*
X006925Y010686D01*
X006925Y010995D01*
X006807Y011280D01*
X006589Y011498D01*
X006304Y011616D01*
X005996Y011616D01*
X005711Y011498D01*
X005493Y011280D01*
X005375Y010995D01*
X005375Y010686D01*
X005493Y010402D01*
X005711Y010184D01*
X005996Y010066D01*
X006304Y010066D01*
X006604Y010198D02*
X009140Y010198D01*
X009140Y010297D02*
X006702Y010297D01*
X006801Y010395D02*
X009140Y010395D01*
X009140Y010494D02*
X006845Y010494D01*
X006886Y010592D02*
X009196Y010592D01*
X009385Y010986D02*
X006925Y010986D01*
X006925Y010888D02*
X011000Y010888D01*
X011000Y010986D02*
X009915Y010986D01*
X009938Y010998D02*
X009861Y010959D01*
X009779Y010932D01*
X009700Y010920D01*
X009700Y011419D01*
X009700Y011519D01*
X009600Y011519D01*
X009600Y012017D01*
X009521Y012005D01*
X009439Y011978D01*
X009362Y011939D01*
X009292Y011888D01*
X009230Y011827D01*
X009180Y011757D01*
X009140Y011680D01*
X009114Y011597D01*
X009101Y011519D01*
X009600Y011519D01*
X009600Y011419D01*
X009101Y011419D01*
X009114Y011340D01*
X009140Y011257D01*
X009180Y011180D01*
X009230Y011110D01*
X009292Y011049D01*
X009362Y010998D01*
X009439Y010959D01*
X009521Y010932D01*
X009600Y010920D01*
X009600Y011419D01*
X009700Y011419D01*
X010199Y011419D01*
X010186Y011340D01*
X010160Y011257D01*
X010120Y011180D01*
X010070Y011110D01*
X010008Y011049D01*
X009938Y010998D01*
X010044Y011085D02*
X011000Y011085D01*
X011000Y011183D02*
X010122Y011183D01*
X010168Y011282D02*
X011000Y011282D01*
X011000Y011380D02*
X010193Y011380D01*
X010199Y011519D02*
X010186Y011597D01*
X010160Y011680D01*
X010120Y011757D01*
X010070Y011827D01*
X010008Y011888D01*
X009938Y011939D01*
X009861Y011978D01*
X009779Y012005D01*
X009700Y012017D01*
X009700Y011519D01*
X010199Y011519D01*
X010190Y011577D02*
X011000Y011577D01*
X011000Y011479D02*
X009700Y011479D01*
X009700Y011577D02*
X009600Y011577D01*
X009600Y011479D02*
X006608Y011479D01*
X006706Y011380D02*
X009107Y011380D01*
X009132Y011282D02*
X006805Y011282D01*
X006847Y011183D02*
X009178Y011183D01*
X009256Y011085D02*
X006888Y011085D01*
X006925Y010789D02*
X011000Y010789D01*
X011000Y010691D02*
X006925Y010691D01*
X006397Y011577D02*
X009110Y011577D01*
X009139Y011676D02*
X000300Y011676D01*
X000300Y011774D02*
X009192Y011774D01*
X009276Y011873D02*
X000300Y011873D01*
X000300Y011971D02*
X009425Y011971D01*
X009600Y011971D02*
X009700Y011971D01*
X009700Y011873D02*
X009600Y011873D01*
X009600Y011774D02*
X009700Y011774D01*
X009700Y011676D02*
X009600Y011676D01*
X009600Y011380D02*
X009700Y011380D01*
X009700Y011282D02*
X009600Y011282D01*
X009600Y011183D02*
X009700Y011183D01*
X009700Y011085D02*
X009600Y011085D01*
X009600Y010986D02*
X009700Y010986D01*
X010104Y010592D02*
X011000Y010592D01*
X011000Y010494D02*
X010160Y010494D01*
X010160Y010395D02*
X011000Y010395D01*
X011000Y010297D02*
X010160Y010297D01*
X010160Y010198D02*
X011000Y010198D01*
X011000Y010100D02*
X010160Y010100D01*
X010160Y010001D02*
X011000Y010001D01*
X011000Y009903D02*
X010160Y009903D01*
X010160Y009804D02*
X011000Y009804D01*
X011000Y009706D02*
X010160Y009706D01*
X010122Y009607D02*
X011000Y009607D01*
X011000Y009509D02*
X009337Y009509D01*
X009238Y009410D02*
X011000Y009410D01*
X011000Y009312D02*
X009140Y009312D01*
X009041Y009213D02*
X009409Y009213D01*
X009268Y009115D02*
X008943Y009115D01*
X008844Y009016D02*
X009186Y009016D01*
X008840Y009012D02*
X008840Y008262D01*
X008669Y008091D01*
X008840Y007919D01*
X008840Y006856D01*
X009140Y007156D01*
X009140Y007786D01*
X009204Y007851D01*
X010096Y007851D01*
X010160Y007786D01*
X010160Y006895D01*
X010096Y006831D01*
X009465Y006831D01*
X008894Y006259D01*
X008922Y006247D01*
X009057Y006112D01*
X009130Y005936D01*
X009130Y005745D01*
X009057Y005569D01*
X008922Y005434D01*
X008880Y005416D01*
X008880Y005265D01*
X008922Y005247D01*
X009057Y005112D01*
X009130Y004936D01*
X009130Y004745D01*
X009057Y004569D01*
X008922Y004434D01*
X008880Y004416D01*
X008880Y004265D01*
X008922Y004247D01*
X009057Y004112D01*
X009130Y003936D01*
X009130Y003745D01*
X009057Y003569D01*
X008922Y003434D01*
X008880Y003416D01*
X008880Y003265D01*
X008922Y003247D01*
X009057Y003112D01*
X009130Y002936D01*
X009130Y002745D01*
X009057Y002569D01*
X008922Y002434D01*
X008880Y002416D01*
X008880Y002265D01*
X008922Y002247D01*
X009057Y002112D01*
X009130Y001936D01*
X009130Y001745D01*
X009057Y001569D01*
X008922Y001434D01*
X008745Y001361D01*
X008555Y001361D01*
X008378Y001434D01*
X008243Y001569D01*
X008170Y001745D01*
X008170Y001936D01*
X008243Y002112D01*
X008378Y002247D01*
X008420Y002265D01*
X008420Y002416D01*
X008378Y002434D01*
X008243Y002569D01*
X008170Y002745D01*
X008170Y002936D01*
X008243Y003112D01*
X008378Y003247D01*
X008420Y003265D01*
X008420Y003416D01*
X008378Y003434D01*
X008243Y003569D01*
X008170Y003745D01*
X008170Y003936D01*
X008243Y004112D01*
X008378Y004247D01*
X008420Y004265D01*
X008420Y004416D01*
X008378Y004434D01*
X008243Y004569D01*
X008170Y004745D01*
X008170Y004936D01*
X008243Y005112D01*
X008378Y005247D01*
X008420Y005265D01*
X008420Y005416D01*
X008378Y005434D01*
X008243Y005569D01*
X008170Y005745D01*
X008170Y005936D01*
X008243Y006112D01*
X008378Y006247D01*
X008420Y006265D01*
X008420Y006342D01*
X008229Y006151D01*
X008071Y006151D01*
X008041Y006181D01*
X007989Y006181D01*
X008057Y006112D01*
X008130Y005936D01*
X008130Y005745D01*
X008057Y005569D01*
X007922Y005434D01*
X007745Y005361D01*
X007555Y005361D01*
X007378Y005434D01*
X007243Y005569D01*
X007209Y005651D01*
X006929Y005651D01*
X006300Y005022D01*
X006300Y004654D01*
X006036Y004391D01*
X005664Y004391D01*
X005400Y004654D01*
X005400Y005027D01*
X005664Y005291D01*
X006031Y005291D01*
X006660Y005919D01*
X006771Y006031D01*
X007209Y006031D01*
X007243Y006112D01*
X007311Y006181D01*
X007259Y006181D01*
X007229Y006151D01*
X006429Y006151D01*
X006300Y006022D01*
X006300Y005654D01*
X006036Y005391D01*
X005664Y005391D01*
X005400Y005654D01*
X005400Y006027D01*
X005664Y006291D01*
X006031Y006291D01*
X006160Y006419D01*
X006271Y006531D01*
X007229Y006531D01*
X007259Y006501D01*
X007311Y006501D01*
X007243Y006569D01*
X007209Y006651D01*
X005379Y006651D01*
X004490Y005762D01*
X004379Y005651D01*
X003296Y005651D01*
X003036Y005391D01*
X002664Y005391D01*
X002400Y005654D01*
X002400Y005772D01*
X000871Y007301D01*
X000760Y007412D01*
X000760Y007800D01*
X000678Y007834D01*
X000300Y007834D01*
X000300Y007736D02*
X000760Y007736D01*
X000760Y007637D02*
X000300Y007637D01*
X000300Y007539D02*
X000760Y007539D01*
X000760Y007440D02*
X000300Y007440D01*
X000300Y007342D02*
X000830Y007342D01*
X000929Y007243D02*
X000300Y007243D01*
X000300Y007145D02*
X001027Y007145D01*
X001126Y007046D02*
X000300Y007046D01*
X000300Y006948D02*
X001224Y006948D01*
X001323Y006849D02*
X000300Y006849D01*
X000300Y006751D02*
X001421Y006751D01*
X001520Y006652D02*
X000300Y006652D01*
X000300Y006554D02*
X001618Y006554D01*
X001717Y006455D02*
X000300Y006455D01*
X000300Y006357D02*
X001815Y006357D01*
X001914Y006258D02*
X000300Y006258D01*
X000300Y006160D02*
X002012Y006160D01*
X002111Y006061D02*
X000300Y006061D01*
X000300Y005963D02*
X002209Y005963D01*
X002308Y005864D02*
X000300Y005864D01*
X000300Y005766D02*
X001122Y005766D01*
X001078Y005747D02*
X000943Y005612D01*
X000870Y005436D01*
X000870Y005245D01*
X000943Y005069D01*
X001078Y004934D01*
X001255Y004861D01*
X001445Y004861D01*
X001527Y004894D01*
X001674Y004748D01*
X001623Y004785D01*
X001550Y004822D01*
X001472Y004848D01*
X001391Y004861D01*
X001379Y004861D01*
X001379Y004369D01*
X001870Y004369D01*
X001870Y004381D01*
X001857Y004462D01*
X001832Y004540D01*
X001795Y004613D01*
X001757Y004664D01*
X001771Y004651D01*
X002404Y004651D01*
X002664Y004391D01*
X003036Y004391D01*
X003284Y004638D01*
X004660Y003262D01*
X004660Y002262D01*
X004771Y002151D01*
X005271Y001651D01*
X006729Y001651D01*
X006840Y001762D01*
X007473Y002394D01*
X007555Y002361D01*
X007745Y002361D01*
X007922Y002434D01*
X008057Y002569D01*
X008130Y002745D01*
X008130Y002936D01*
X008057Y003112D01*
X007922Y003247D01*
X007745Y003321D01*
X007555Y003321D01*
X007378Y003247D01*
X007243Y003112D01*
X007170Y002936D01*
X007170Y002745D01*
X007204Y002663D01*
X006571Y002031D01*
X005429Y002031D01*
X005040Y002419D01*
X005040Y003419D01*
X003429Y005031D01*
X003296Y005031D01*
X003036Y005291D01*
X002664Y005291D01*
X002404Y005031D01*
X001929Y005031D01*
X001796Y005163D01*
X001830Y005245D01*
X001830Y005436D01*
X001757Y005612D01*
X001622Y005747D01*
X001445Y005821D01*
X001255Y005821D01*
X001078Y005747D01*
X000998Y005667D02*
X000300Y005667D01*
X000300Y005569D02*
X000925Y005569D01*
X000884Y005470D02*
X000300Y005470D01*
X000300Y005372D02*
X000870Y005372D01*
X000870Y005273D02*
X000300Y005273D01*
X000300Y005175D02*
X000899Y005175D01*
X000940Y005076D02*
X000300Y005076D01*
X000300Y004978D02*
X001034Y004978D01*
X001150Y004822D02*
X001077Y004785D01*
X001011Y004737D01*
X000953Y004679D01*
X000905Y004613D01*
X000868Y004540D01*
X000843Y004462D01*
X000830Y004381D01*
X000830Y004369D01*
X001321Y004369D01*
X001321Y004312D01*
X000830Y004312D01*
X000830Y004300D01*
X000843Y004219D01*
X000868Y004141D01*
X000905Y004068D01*
X000953Y004002D01*
X001011Y003944D01*
X001077Y003896D01*
X001150Y003859D01*
X001228Y003833D01*
X001309Y003821D01*
X001321Y003821D01*
X001321Y004312D01*
X001379Y004312D01*
X001379Y004369D01*
X001321Y004369D01*
X001321Y004861D01*
X001309Y004861D01*
X001228Y004848D01*
X001150Y004822D01*
X001210Y004879D02*
X000300Y004879D01*
X000300Y004781D02*
X001071Y004781D01*
X000956Y004682D02*
X000300Y004682D01*
X000300Y004584D02*
X000890Y004584D01*
X000850Y004485D02*
X000300Y004485D01*
X000300Y004387D02*
X000831Y004387D01*
X000832Y004288D02*
X000300Y004288D01*
X000300Y004190D02*
X000852Y004190D01*
X000894Y004091D02*
X000300Y004091D01*
X000300Y003993D02*
X000963Y003993D01*
X001081Y003894D02*
X000300Y003894D01*
X000300Y003796D02*
X001194Y003796D01*
X001255Y003821D02*
X001078Y003747D01*
X000943Y003612D01*
X000870Y003436D01*
X000870Y003245D01*
X000943Y003069D01*
X001078Y002934D01*
X001255Y002861D01*
X001445Y002861D01*
X001622Y002934D01*
X001757Y003069D01*
X001830Y003245D01*
X001830Y003436D01*
X001796Y003518D01*
X001929Y003651D01*
X002404Y003651D01*
X002664Y003391D01*
X003036Y003391D01*
X003284Y003638D01*
X003660Y003262D01*
X003660Y002262D01*
X003771Y002151D01*
X004771Y001151D01*
X007229Y001151D01*
X007340Y001262D01*
X007473Y001394D01*
X007555Y001361D01*
X007745Y001361D01*
X007922Y001434D01*
X008057Y001569D01*
X008130Y001745D01*
X008130Y001936D01*
X008057Y002112D01*
X007922Y002247D01*
X007745Y002321D01*
X007555Y002321D01*
X007378Y002247D01*
X007243Y002112D01*
X007170Y001936D01*
X007170Y001745D01*
X007204Y001663D01*
X007071Y001531D01*
X004929Y001531D01*
X004040Y002419D01*
X004040Y003419D01*
X003540Y003919D01*
X003429Y004031D01*
X003296Y004031D01*
X003036Y004291D01*
X002664Y004291D01*
X002404Y004031D01*
X001771Y004031D01*
X001757Y004017D01*
X001795Y004068D01*
X001832Y004141D01*
X001857Y004219D01*
X001870Y004300D01*
X001870Y004312D01*
X001379Y004312D01*
X001379Y003821D01*
X001391Y003821D01*
X001472Y003833D01*
X001550Y003859D01*
X001623Y003896D01*
X001674Y003933D01*
X001527Y003787D01*
X001445Y003821D01*
X001255Y003821D01*
X001321Y003894D02*
X001379Y003894D01*
X001379Y003993D02*
X001321Y003993D01*
X001321Y004091D02*
X001379Y004091D01*
X001379Y004190D02*
X001321Y004190D01*
X001321Y004288D02*
X001379Y004288D01*
X001379Y004387D02*
X001321Y004387D01*
X001321Y004485D02*
X001379Y004485D01*
X001379Y004584D02*
X001321Y004584D01*
X001321Y004682D02*
X001379Y004682D01*
X001379Y004781D02*
X001321Y004781D01*
X001490Y004879D02*
X001543Y004879D01*
X001629Y004781D02*
X001641Y004781D01*
X001810Y004584D02*
X002471Y004584D01*
X002569Y004485D02*
X001850Y004485D01*
X001869Y004387D02*
X003535Y004387D01*
X003437Y004485D02*
X003131Y004485D01*
X003229Y004584D02*
X003338Y004584D01*
X003350Y004841D02*
X002850Y004841D01*
X002548Y005175D02*
X001801Y005175D01*
X001830Y005273D02*
X002646Y005273D01*
X002584Y005470D02*
X001816Y005470D01*
X001830Y005372D02*
X006112Y005372D01*
X006116Y005470D02*
X006211Y005470D01*
X006214Y005569D02*
X006309Y005569D01*
X006300Y005667D02*
X006408Y005667D01*
X006506Y005766D02*
X006300Y005766D01*
X006300Y005864D02*
X006605Y005864D01*
X006703Y005963D02*
X006300Y005963D01*
X006339Y006061D02*
X007222Y006061D01*
X007238Y006160D02*
X007290Y006160D01*
X007150Y006341D02*
X008150Y006341D01*
X008238Y006160D02*
X008290Y006160D01*
X008336Y006258D02*
X008404Y006258D01*
X008222Y006061D02*
X008078Y006061D01*
X008062Y006160D02*
X008010Y006160D01*
X008119Y005963D02*
X008181Y005963D01*
X008170Y005864D02*
X008130Y005864D01*
X008130Y005766D02*
X008170Y005766D01*
X008202Y005667D02*
X008098Y005667D01*
X008057Y005569D02*
X008243Y005569D01*
X008342Y005470D02*
X007958Y005470D01*
X007860Y005273D02*
X008420Y005273D01*
X008420Y005372D02*
X007772Y005372D01*
X007745Y005321D02*
X007555Y005321D01*
X007378Y005247D01*
X007243Y005112D01*
X007209Y005031D01*
X006771Y005031D01*
X006660Y004919D01*
X006031Y004291D01*
X005664Y004291D01*
X005400Y004027D01*
X005400Y003654D01*
X005664Y003391D01*
X006036Y003391D01*
X006300Y003654D01*
X006300Y004022D01*
X006929Y004651D01*
X007209Y004651D01*
X007243Y004569D01*
X007378Y004434D01*
X007555Y004361D01*
X007745Y004361D01*
X007922Y004434D01*
X008057Y004569D01*
X008130Y004745D01*
X008130Y004936D01*
X008057Y005112D01*
X007922Y005247D01*
X007745Y005321D01*
X007528Y005372D02*
X006650Y005372D01*
X006748Y005470D02*
X007342Y005470D01*
X007243Y005569D02*
X006847Y005569D01*
X006551Y005273D02*
X007440Y005273D01*
X007305Y005175D02*
X006453Y005175D01*
X006354Y005076D02*
X007228Y005076D01*
X007237Y004584D02*
X006862Y004584D01*
X006763Y004485D02*
X007327Y004485D01*
X007492Y004387D02*
X006665Y004387D01*
X006566Y004288D02*
X007476Y004288D01*
X007555Y004321D02*
X007378Y004247D01*
X007243Y004112D01*
X007209Y004031D01*
X006771Y004031D01*
X006660Y003919D01*
X006031Y003291D01*
X005664Y003291D01*
X005400Y003027D01*
X005400Y002654D01*
X005664Y002391D01*
X006036Y002391D01*
X006300Y002654D01*
X006300Y003022D01*
X006929Y003651D01*
X007209Y003651D01*
X007243Y003569D01*
X007378Y003434D01*
X007555Y003361D01*
X007745Y003361D01*
X007922Y003434D01*
X008057Y003569D01*
X008130Y003745D01*
X008130Y003936D01*
X008057Y004112D01*
X007922Y004247D01*
X007745Y004321D01*
X007555Y004321D01*
X007808Y004387D02*
X008420Y004387D01*
X008420Y004288D02*
X007824Y004288D01*
X007980Y004190D02*
X008320Y004190D01*
X008234Y004091D02*
X008066Y004091D01*
X008107Y003993D02*
X008193Y003993D01*
X008170Y003894D02*
X008130Y003894D01*
X008130Y003796D02*
X008170Y003796D01*
X008190Y003697D02*
X008110Y003697D01*
X008069Y003599D02*
X008231Y003599D01*
X008312Y003500D02*
X007988Y003500D01*
X007844Y003402D02*
X008420Y003402D01*
X008420Y003303D02*
X007788Y003303D01*
X007965Y003205D02*
X008335Y003205D01*
X008240Y003106D02*
X008060Y003106D01*
X008100Y003008D02*
X008200Y003008D01*
X008170Y002909D02*
X008130Y002909D01*
X008130Y002811D02*
X008170Y002811D01*
X008184Y002712D02*
X008116Y002712D01*
X008076Y002614D02*
X008224Y002614D01*
X008297Y002515D02*
X008003Y002515D01*
X007881Y002417D02*
X008419Y002417D01*
X008420Y002318D02*
X007752Y002318D01*
X007548Y002318D02*
X007396Y002318D01*
X007350Y002220D02*
X007298Y002220D01*
X007252Y002121D02*
X007199Y002121D01*
X007206Y002023D02*
X007101Y002023D01*
X007170Y001924D02*
X007002Y001924D01*
X006904Y001826D02*
X007170Y001826D01*
X007177Y001727D02*
X006805Y001727D01*
X007169Y001629D02*
X004831Y001629D01*
X004732Y001727D02*
X005195Y001727D01*
X005096Y001826D02*
X004634Y001826D01*
X004535Y001924D02*
X004998Y001924D01*
X004899Y002023D02*
X004437Y002023D01*
X004338Y002121D02*
X004801Y002121D01*
X004702Y002220D02*
X004240Y002220D01*
X004141Y002318D02*
X004660Y002318D01*
X004660Y002417D02*
X004043Y002417D01*
X004040Y002515D02*
X004660Y002515D01*
X004660Y002614D02*
X004040Y002614D01*
X004040Y002712D02*
X004660Y002712D01*
X004660Y002811D02*
X004040Y002811D01*
X004040Y002909D02*
X004660Y002909D01*
X004660Y003008D02*
X004040Y003008D01*
X004040Y003106D02*
X004660Y003106D01*
X004660Y003205D02*
X004040Y003205D01*
X004040Y003303D02*
X004619Y003303D01*
X004520Y003402D02*
X004040Y003402D01*
X003959Y003500D02*
X004422Y003500D01*
X004323Y003599D02*
X003861Y003599D01*
X003762Y003697D02*
X004225Y003697D01*
X004126Y003796D02*
X003664Y003796D01*
X003565Y003894D02*
X004028Y003894D01*
X003929Y003993D02*
X003467Y003993D01*
X003236Y004091D02*
X003831Y004091D01*
X003732Y004190D02*
X003137Y004190D01*
X003039Y004288D02*
X003634Y004288D01*
X003876Y004584D02*
X005471Y004584D01*
X005400Y004682D02*
X003777Y004682D01*
X003679Y004781D02*
X005400Y004781D01*
X005400Y004879D02*
X003580Y004879D01*
X003482Y004978D02*
X005400Y004978D01*
X005449Y005076D02*
X003251Y005076D01*
X003152Y005175D02*
X005548Y005175D01*
X005646Y005273D02*
X003054Y005273D01*
X003116Y005470D02*
X005584Y005470D01*
X005486Y005569D02*
X003214Y005569D01*
X003266Y006061D02*
X004252Y006061D01*
X004350Y006160D02*
X003167Y006160D01*
X003069Y006258D02*
X004449Y006258D01*
X004547Y006357D02*
X002353Y006357D01*
X002254Y006455D02*
X004646Y006455D01*
X004744Y006554D02*
X002156Y006554D01*
X002451Y006258D02*
X002631Y006258D01*
X002400Y005766D02*
X001578Y005766D01*
X001702Y005667D02*
X002400Y005667D01*
X002486Y005569D02*
X001775Y005569D01*
X001883Y005076D02*
X002449Y005076D01*
X002661Y004288D02*
X001868Y004288D01*
X001848Y004190D02*
X002563Y004190D01*
X002464Y004091D02*
X001806Y004091D01*
X001635Y003894D02*
X001619Y003894D01*
X001536Y003796D02*
X001506Y003796D01*
X001803Y003500D02*
X002554Y003500D01*
X002456Y003599D02*
X001877Y003599D01*
X001830Y003402D02*
X002653Y003402D01*
X002647Y003331D02*
X002360Y003044D01*
X002360Y002871D01*
X002820Y002871D01*
X002820Y003331D01*
X002647Y003331D01*
X002620Y003303D02*
X001830Y003303D01*
X001813Y003205D02*
X002521Y003205D01*
X002423Y003106D02*
X001772Y003106D01*
X001696Y003008D02*
X002360Y003008D01*
X002360Y002909D02*
X001563Y002909D01*
X001309Y002614D02*
X002384Y002614D01*
X002360Y002638D02*
X002647Y002351D01*
X002820Y002351D01*
X002820Y002811D01*
X000300Y002811D01*
X000300Y002909D02*
X001137Y002909D01*
X001004Y003008D02*
X000300Y003008D01*
X000300Y003106D02*
X000928Y003106D01*
X000887Y003205D02*
X000300Y003205D01*
X000300Y003303D02*
X000870Y003303D01*
X000870Y003402D02*
X000300Y003402D01*
X000300Y003500D02*
X000897Y003500D01*
X000937Y003599D02*
X000300Y003599D01*
X000300Y003697D02*
X001028Y003697D01*
X000300Y002712D02*
X002360Y002712D01*
X002360Y002638D02*
X002360Y002811D01*
X002820Y002811D01*
X002820Y002871D01*
X002880Y002871D01*
X002880Y003331D01*
X003053Y003331D01*
X003340Y003044D01*
X003340Y002871D01*
X002880Y002871D01*
X002880Y002811D01*
X003660Y002811D01*
X003660Y002909D02*
X003340Y002909D01*
X003340Y002811D02*
X002880Y002811D01*
X002880Y002351D01*
X003053Y002351D01*
X003340Y002638D01*
X003340Y002811D01*
X003340Y002712D02*
X003660Y002712D01*
X003660Y002614D02*
X003316Y002614D01*
X003217Y002515D02*
X003660Y002515D01*
X003660Y002417D02*
X003119Y002417D01*
X002880Y002417D02*
X002820Y002417D01*
X002820Y002515D02*
X002880Y002515D01*
X002880Y002614D02*
X002820Y002614D01*
X002820Y002712D02*
X002880Y002712D01*
X002880Y002811D02*
X002820Y002811D01*
X002820Y002909D02*
X002880Y002909D01*
X002880Y003008D02*
X002820Y003008D01*
X002820Y003106D02*
X002880Y003106D01*
X002880Y003205D02*
X002820Y003205D01*
X002820Y003303D02*
X002880Y003303D01*
X003047Y003402D02*
X003520Y003402D01*
X003422Y003500D02*
X003146Y003500D01*
X003244Y003599D02*
X003323Y003599D01*
X003080Y003303D02*
X003619Y003303D01*
X003660Y003205D02*
X003179Y003205D01*
X003277Y003106D02*
X003660Y003106D01*
X003660Y003008D02*
X003340Y003008D01*
X003660Y002318D02*
X001769Y002318D01*
X001807Y002280D02*
X001589Y002498D01*
X001304Y002616D01*
X000996Y002616D01*
X000711Y002498D01*
X000493Y002280D01*
X000375Y001995D01*
X000375Y001686D01*
X000493Y001402D01*
X000711Y001184D01*
X000996Y001066D01*
X001304Y001066D01*
X001589Y001184D01*
X001807Y001402D01*
X001925Y001686D01*
X001925Y001995D01*
X001807Y002280D01*
X001832Y002220D02*
X003702Y002220D01*
X003801Y002121D02*
X001873Y002121D01*
X001913Y002023D02*
X003899Y002023D01*
X003998Y001924D02*
X001925Y001924D01*
X001925Y001826D02*
X004096Y001826D01*
X004195Y001727D02*
X001925Y001727D01*
X001901Y001629D02*
X004293Y001629D01*
X004392Y001530D02*
X001860Y001530D01*
X001819Y001432D02*
X004490Y001432D01*
X004589Y001333D02*
X001739Y001333D01*
X001640Y001235D02*
X004687Y001235D01*
X005338Y002121D02*
X006662Y002121D01*
X006760Y002220D02*
X005240Y002220D01*
X005141Y002318D02*
X006859Y002318D01*
X006957Y002417D02*
X006062Y002417D01*
X006161Y002515D02*
X007056Y002515D01*
X007154Y002614D02*
X006259Y002614D01*
X006300Y002712D02*
X007184Y002712D01*
X007170Y002811D02*
X006300Y002811D01*
X006300Y002909D02*
X007170Y002909D01*
X007200Y003008D02*
X006300Y003008D01*
X006384Y003106D02*
X007240Y003106D01*
X007335Y003205D02*
X006483Y003205D01*
X006581Y003303D02*
X007512Y003303D01*
X007456Y003402D02*
X006680Y003402D01*
X006778Y003500D02*
X007312Y003500D01*
X007231Y003599D02*
X006877Y003599D01*
X006635Y003894D02*
X006300Y003894D01*
X006300Y003796D02*
X006536Y003796D01*
X006438Y003697D02*
X006300Y003697D01*
X006339Y003599D02*
X006244Y003599D01*
X006241Y003500D02*
X006146Y003500D01*
X006142Y003402D02*
X006047Y003402D01*
X006044Y003303D02*
X005040Y003303D01*
X005040Y003205D02*
X005578Y003205D01*
X005479Y003106D02*
X005040Y003106D01*
X005040Y003008D02*
X005400Y003008D01*
X005400Y002909D02*
X005040Y002909D01*
X005040Y002811D02*
X005400Y002811D01*
X005400Y002712D02*
X005040Y002712D01*
X005040Y002614D02*
X005441Y002614D01*
X005539Y002515D02*
X005040Y002515D01*
X005043Y002417D02*
X005638Y002417D01*
X005653Y003402D02*
X005040Y003402D01*
X004959Y003500D02*
X005554Y003500D01*
X005456Y003599D02*
X004861Y003599D01*
X004762Y003697D02*
X005400Y003697D01*
X005400Y003796D02*
X004664Y003796D01*
X004565Y003894D02*
X005400Y003894D01*
X005400Y003993D02*
X004467Y003993D01*
X004368Y004091D02*
X005464Y004091D01*
X005563Y004190D02*
X004270Y004190D01*
X004171Y004288D02*
X005661Y004288D01*
X005569Y004485D02*
X003974Y004485D01*
X004073Y004387D02*
X006127Y004387D01*
X006131Y004485D02*
X006226Y004485D01*
X006229Y004584D02*
X006324Y004584D01*
X006300Y004682D02*
X006423Y004682D01*
X006521Y004781D02*
X006300Y004781D01*
X006300Y004879D02*
X006620Y004879D01*
X006718Y004978D02*
X006300Y004978D01*
X006468Y004190D02*
X007320Y004190D01*
X007234Y004091D02*
X006369Y004091D01*
X006300Y003993D02*
X006733Y003993D01*
X007973Y004485D02*
X008327Y004485D01*
X008237Y004584D02*
X008063Y004584D01*
X008104Y004682D02*
X008196Y004682D01*
X008170Y004781D02*
X008130Y004781D01*
X008130Y004879D02*
X008170Y004879D01*
X008187Y004978D02*
X008113Y004978D01*
X008072Y005076D02*
X008228Y005076D01*
X008305Y005175D02*
X007995Y005175D01*
X008880Y005273D02*
X009361Y005273D01*
X009377Y005285D02*
X009311Y005237D01*
X009253Y005179D01*
X009205Y005113D01*
X009168Y005040D01*
X009143Y004962D01*
X009131Y004891D01*
X009600Y004891D01*
X009600Y005791D01*
X009131Y005791D01*
X009143Y005719D01*
X009168Y005641D01*
X009205Y005568D01*
X009253Y005502D01*
X009311Y005444D01*
X009377Y005396D01*
X009450Y005359D01*
X009506Y005341D01*
X009450Y005322D01*
X009377Y005285D01*
X009425Y005372D02*
X008880Y005372D01*
X008958Y005470D02*
X009285Y005470D01*
X009205Y005569D02*
X009057Y005569D01*
X009098Y005667D02*
X009160Y005667D01*
X009135Y005766D02*
X009130Y005766D01*
X009130Y005864D02*
X009600Y005864D01*
X009600Y005891D02*
X009600Y005791D01*
X009700Y005791D01*
X009700Y005891D01*
X009600Y005891D01*
X009600Y006359D01*
X009528Y006348D01*
X009450Y006322D01*
X009377Y006285D01*
X009311Y006237D01*
X009253Y006179D01*
X009205Y006113D01*
X009168Y006040D01*
X009143Y005962D01*
X009131Y005891D01*
X009600Y005891D01*
X009600Y005963D02*
X009700Y005963D01*
X009700Y005891D02*
X009700Y006359D01*
X009772Y006348D01*
X009850Y006322D01*
X009923Y006285D01*
X009989Y006237D01*
X010047Y006179D01*
X010095Y006113D01*
X010132Y006040D01*
X010157Y005962D01*
X010169Y005891D01*
X009700Y005891D01*
X009700Y005864D02*
X011000Y005864D01*
X011000Y005766D02*
X010165Y005766D01*
X010169Y005791D02*
X009700Y005791D01*
X009700Y005322D01*
X009700Y004891D01*
X009600Y004891D01*
X009600Y004791D01*
X009131Y004791D01*
X009143Y004719D01*
X009168Y004641D01*
X009205Y004568D01*
X009253Y004502D01*
X009311Y004444D01*
X009377Y004396D01*
X009450Y004359D01*
X009506Y004341D01*
X009450Y004322D01*
X009377Y004285D01*
X009311Y004237D01*
X009253Y004179D01*
X009205Y004113D01*
X009168Y004040D01*
X009143Y003962D01*
X009131Y003891D01*
X009600Y003891D01*
X009600Y004791D01*
X009700Y004791D01*
X009700Y004891D01*
X010169Y004891D01*
X010157Y004962D01*
X010132Y005040D01*
X010095Y005113D01*
X010047Y005179D01*
X009989Y005237D01*
X009923Y005285D01*
X009850Y005322D01*
X009794Y005341D01*
X009850Y005359D01*
X009923Y005396D01*
X009989Y005444D01*
X010047Y005502D01*
X010095Y005568D01*
X010132Y005641D01*
X010157Y005719D01*
X010169Y005791D01*
X010140Y005667D02*
X011000Y005667D01*
X011000Y005569D02*
X010095Y005569D01*
X010015Y005470D02*
X011000Y005470D01*
X011000Y005372D02*
X009875Y005372D01*
X009939Y005273D02*
X011000Y005273D01*
X011000Y005175D02*
X010050Y005175D01*
X010114Y005076D02*
X011000Y005076D01*
X011000Y004978D02*
X010152Y004978D01*
X010169Y004791D02*
X009700Y004791D01*
X009700Y004322D01*
X009700Y003891D01*
X009600Y003891D01*
X009600Y003791D01*
X009131Y003791D01*
X009143Y003719D01*
X009168Y003641D01*
X009205Y003568D01*
X009253Y003502D01*
X009311Y003444D01*
X009377Y003396D01*
X009450Y003359D01*
X009506Y003341D01*
X009450Y003322D01*
X009377Y003285D01*
X009311Y003237D01*
X009253Y003179D01*
X009205Y003113D01*
X009168Y003040D01*
X009143Y002962D01*
X009131Y002891D01*
X009600Y002891D01*
X009600Y003359D01*
X009600Y003791D01*
X009700Y003791D01*
X009700Y003891D01*
X010169Y003891D01*
X010157Y003962D01*
X010132Y004040D01*
X010095Y004113D01*
X010047Y004179D01*
X009989Y004237D01*
X009923Y004285D01*
X009850Y004322D01*
X009794Y004341D01*
X009850Y004359D01*
X009923Y004396D01*
X009989Y004444D01*
X010047Y004502D01*
X010095Y004568D01*
X010132Y004641D01*
X010157Y004719D01*
X010169Y004791D01*
X010167Y004781D02*
X011000Y004781D01*
X011000Y004879D02*
X009700Y004879D01*
X009700Y004781D02*
X009600Y004781D01*
X009600Y004879D02*
X009130Y004879D01*
X009130Y004781D02*
X009133Y004781D01*
X009155Y004682D02*
X009104Y004682D01*
X009063Y004584D02*
X009197Y004584D01*
X009270Y004485D02*
X008973Y004485D01*
X008880Y004387D02*
X009396Y004387D01*
X009383Y004288D02*
X008880Y004288D01*
X008980Y004190D02*
X009264Y004190D01*
X009194Y004091D02*
X009066Y004091D01*
X009107Y003993D02*
X009153Y003993D01*
X009130Y003894D02*
X009132Y003894D01*
X009130Y003796D02*
X009600Y003796D01*
X009600Y003894D02*
X009700Y003894D01*
X009700Y003796D02*
X011000Y003796D01*
X011000Y003894D02*
X010168Y003894D01*
X010147Y003993D02*
X011000Y003993D01*
X011000Y004091D02*
X010106Y004091D01*
X010036Y004190D02*
X011000Y004190D01*
X011000Y004288D02*
X009917Y004288D01*
X009904Y004387D02*
X011000Y004387D01*
X011000Y004485D02*
X010030Y004485D01*
X010103Y004584D02*
X011000Y004584D01*
X011000Y004682D02*
X010145Y004682D01*
X009700Y004682D02*
X009600Y004682D01*
X009600Y004584D02*
X009700Y004584D01*
X009700Y004485D02*
X009600Y004485D01*
X009600Y004387D02*
X009700Y004387D01*
X009700Y004288D02*
X009600Y004288D01*
X009600Y004190D02*
X009700Y004190D01*
X009700Y004091D02*
X009600Y004091D01*
X009600Y003993D02*
X009700Y003993D01*
X009700Y003791D02*
X010169Y003791D01*
X010157Y003719D01*
X010132Y003641D01*
X010095Y003568D01*
X010047Y003502D01*
X009989Y003444D01*
X009923Y003396D01*
X009850Y003359D01*
X009794Y003341D01*
X009850Y003322D01*
X009923Y003285D01*
X009989Y003237D01*
X010047Y003179D01*
X010095Y003113D01*
X010132Y003040D01*
X010157Y002962D01*
X010169Y002891D01*
X009700Y002891D01*
X009600Y002891D01*
X009600Y002791D01*
X009131Y002791D01*
X009143Y002719D01*
X009168Y002641D01*
X009205Y002568D01*
X009253Y002502D01*
X009311Y002444D01*
X009377Y002396D01*
X009450Y002359D01*
X009506Y002341D01*
X009450Y002322D01*
X009377Y002285D01*
X009311Y002237D01*
X009253Y002179D01*
X009205Y002113D01*
X009168Y002040D01*
X009143Y001962D01*
X009131Y001891D01*
X009600Y001891D01*
X009600Y002359D01*
X009600Y002791D01*
X009700Y002791D01*
X009700Y002891D01*
X009700Y003791D01*
X009700Y003697D02*
X009600Y003697D01*
X009600Y003599D02*
X009700Y003599D01*
X009700Y003500D02*
X009600Y003500D01*
X009600Y003402D02*
X009700Y003402D01*
X009700Y003303D02*
X009600Y003303D01*
X009600Y003205D02*
X009700Y003205D01*
X009700Y003106D02*
X009600Y003106D01*
X009600Y003008D02*
X009700Y003008D01*
X009700Y002909D02*
X009600Y002909D01*
X009600Y002811D02*
X009130Y002811D01*
X009130Y002909D02*
X009134Y002909D01*
X009158Y003008D02*
X009100Y003008D01*
X009060Y003106D02*
X009202Y003106D01*
X009279Y003205D02*
X008965Y003205D01*
X008880Y003303D02*
X009412Y003303D01*
X009370Y003402D02*
X008880Y003402D01*
X008988Y003500D02*
X009255Y003500D01*
X009190Y003599D02*
X009069Y003599D01*
X009110Y003697D02*
X009150Y003697D01*
X009930Y003402D02*
X011000Y003402D01*
X011000Y003500D02*
X010045Y003500D01*
X010110Y003599D02*
X011000Y003599D01*
X011000Y003697D02*
X010150Y003697D01*
X009888Y003303D02*
X011000Y003303D01*
X011000Y003205D02*
X010021Y003205D01*
X010098Y003106D02*
X011000Y003106D01*
X011000Y003008D02*
X010142Y003008D01*
X010166Y002909D02*
X011000Y002909D01*
X011000Y002811D02*
X009700Y002811D01*
X009700Y002791D02*
X010169Y002791D01*
X010157Y002719D01*
X010132Y002641D01*
X010095Y002568D01*
X010047Y002502D01*
X009989Y002444D01*
X009923Y002396D01*
X009850Y002359D01*
X009794Y002341D01*
X009850Y002322D01*
X009923Y002285D01*
X009989Y002237D01*
X010047Y002179D01*
X010095Y002113D01*
X010132Y002040D01*
X010157Y001962D01*
X010169Y001891D01*
X009700Y001891D01*
X009600Y001891D01*
X009600Y001791D01*
X009131Y001791D01*
X009143Y001719D01*
X009168Y001641D01*
X009205Y001568D01*
X009253Y001502D01*
X009311Y001444D01*
X009377Y001396D01*
X009450Y001359D01*
X009528Y001333D01*
X009600Y001322D01*
X009600Y001791D01*
X009700Y001791D01*
X009700Y001891D01*
X009700Y002791D01*
X009700Y002712D02*
X009600Y002712D01*
X009600Y002614D02*
X009700Y002614D01*
X009700Y002515D02*
X009600Y002515D01*
X009600Y002417D02*
X009700Y002417D01*
X009700Y002318D02*
X009600Y002318D01*
X009600Y002220D02*
X009700Y002220D01*
X009700Y002121D02*
X009600Y002121D01*
X009600Y002023D02*
X009700Y002023D01*
X009700Y001924D02*
X009600Y001924D01*
X009600Y001826D02*
X009130Y001826D01*
X009130Y001924D02*
X009137Y001924D01*
X009162Y002023D02*
X009094Y002023D01*
X009048Y002121D02*
X009211Y002121D01*
X009294Y002220D02*
X008950Y002220D01*
X008880Y002318D02*
X009442Y002318D01*
X009349Y002417D02*
X008881Y002417D01*
X009003Y002515D02*
X009244Y002515D01*
X009182Y002614D02*
X009076Y002614D01*
X009116Y002712D02*
X009145Y002712D01*
X008350Y002220D02*
X007950Y002220D01*
X008048Y002121D02*
X008252Y002121D01*
X008206Y002023D02*
X008094Y002023D01*
X008130Y001924D02*
X008170Y001924D01*
X008170Y001826D02*
X008130Y001826D01*
X008123Y001727D02*
X008177Y001727D01*
X008218Y001629D02*
X008082Y001629D01*
X008018Y001530D02*
X008282Y001530D01*
X008383Y001432D02*
X007917Y001432D01*
X007411Y001333D02*
X009530Y001333D01*
X009600Y001333D02*
X009700Y001333D01*
X009700Y001322D02*
X009772Y001333D01*
X009850Y001359D01*
X009923Y001396D01*
X009989Y001444D01*
X010047Y001502D01*
X010095Y001568D01*
X010132Y001641D01*
X010157Y001719D01*
X010169Y001791D01*
X009700Y001791D01*
X009700Y001322D01*
X009770Y001333D02*
X011000Y001333D01*
X011000Y001235D02*
X007313Y001235D01*
X008917Y001432D02*
X009328Y001432D01*
X009233Y001530D02*
X009018Y001530D01*
X009082Y001629D02*
X009174Y001629D01*
X009141Y001727D02*
X009123Y001727D01*
X009600Y001727D02*
X009700Y001727D01*
X009700Y001629D02*
X009600Y001629D01*
X009600Y001530D02*
X009700Y001530D01*
X009700Y001432D02*
X009600Y001432D01*
X009700Y001826D02*
X011000Y001826D01*
X011000Y001924D02*
X010163Y001924D01*
X010138Y002023D02*
X011000Y002023D01*
X011000Y002121D02*
X010089Y002121D01*
X010006Y002220D02*
X011000Y002220D01*
X011000Y002318D02*
X009858Y002318D01*
X009951Y002417D02*
X011000Y002417D01*
X011000Y002515D02*
X010056Y002515D01*
X010118Y002614D02*
X011000Y002614D01*
X011000Y002712D02*
X010155Y002712D01*
X010159Y001727D02*
X011000Y001727D01*
X011000Y001629D02*
X010126Y001629D01*
X010067Y001530D02*
X011000Y001530D01*
X011000Y001432D02*
X009972Y001432D01*
X011000Y001136D02*
X001474Y001136D01*
X000826Y001136D02*
X000300Y001136D01*
X000300Y001038D02*
X011000Y001038D01*
X011000Y000991D02*
X011000Y012191D01*
X000300Y012191D01*
X000300Y000991D01*
X011000Y000991D01*
X009700Y004978D02*
X009600Y004978D01*
X009600Y005076D02*
X009700Y005076D01*
X009700Y005175D02*
X009600Y005175D01*
X009600Y005273D02*
X009700Y005273D01*
X009700Y005372D02*
X009600Y005372D01*
X009600Y005470D02*
X009700Y005470D01*
X009700Y005569D02*
X009600Y005569D01*
X009600Y005667D02*
X009700Y005667D01*
X009700Y005766D02*
X009600Y005766D01*
X009600Y006061D02*
X009700Y006061D01*
X009700Y006160D02*
X009600Y006160D01*
X009600Y006258D02*
X009700Y006258D01*
X009700Y006357D02*
X009600Y006357D01*
X009584Y006357D02*
X008991Y006357D01*
X008896Y006258D02*
X009340Y006258D01*
X009239Y006160D02*
X009010Y006160D01*
X009078Y006061D02*
X009179Y006061D01*
X009143Y005963D02*
X009119Y005963D01*
X009090Y006455D02*
X011000Y006455D01*
X011000Y006357D02*
X009716Y006357D01*
X009960Y006258D02*
X011000Y006258D01*
X011000Y006160D02*
X010061Y006160D01*
X010121Y006061D02*
X011000Y006061D01*
X011000Y005963D02*
X010157Y005963D01*
X010114Y006849D02*
X011000Y006849D01*
X011000Y006751D02*
X009385Y006751D01*
X009287Y006652D02*
X011000Y006652D01*
X011000Y006554D02*
X009188Y006554D01*
X008932Y006948D02*
X008840Y006948D01*
X008840Y007046D02*
X009030Y007046D01*
X009129Y007145D02*
X008840Y007145D01*
X008840Y007243D02*
X009140Y007243D01*
X009140Y007342D02*
X008840Y007342D01*
X008840Y007440D02*
X009140Y007440D01*
X009140Y007539D02*
X008840Y007539D01*
X008840Y007637D02*
X009140Y007637D01*
X009140Y007736D02*
X008840Y007736D01*
X008840Y007834D02*
X009188Y007834D01*
X008827Y007933D02*
X011000Y007933D01*
X011000Y008031D02*
X008728Y008031D01*
X008708Y008130D02*
X011000Y008130D01*
X011000Y008228D02*
X009899Y008228D01*
X009861Y008209D02*
X009938Y008248D01*
X010008Y008299D01*
X010070Y008360D01*
X010120Y008430D01*
X010160Y008507D01*
X010186Y008590D01*
X010199Y008669D01*
X009700Y008669D01*
X009700Y008769D01*
X009600Y008769D01*
X009600Y008669D01*
X009101Y008669D01*
X009114Y008590D01*
X009140Y008507D01*
X009180Y008430D01*
X009230Y008360D01*
X009292Y008299D01*
X009362Y008248D01*
X009439Y008209D01*
X009521Y008182D01*
X009600Y008170D01*
X009600Y008669D01*
X009700Y008669D01*
X009700Y008170D01*
X009779Y008182D01*
X009861Y008209D01*
X010036Y008327D02*
X011000Y008327D01*
X011000Y008425D02*
X010117Y008425D01*
X010165Y008524D02*
X011000Y008524D01*
X011000Y008622D02*
X010192Y008622D01*
X010199Y008769D02*
X010186Y008847D01*
X010160Y008930D01*
X010120Y009007D01*
X010070Y009077D01*
X010008Y009138D01*
X009938Y009189D01*
X009861Y009228D01*
X009779Y009255D01*
X009700Y009267D01*
X009700Y008769D01*
X010199Y008769D01*
X010191Y008819D02*
X011000Y008819D01*
X011000Y008721D02*
X009700Y008721D01*
X009700Y008819D02*
X009600Y008819D01*
X009600Y008721D02*
X008840Y008721D01*
X008840Y008622D02*
X009108Y008622D01*
X009135Y008524D02*
X008840Y008524D01*
X008840Y008425D02*
X009183Y008425D01*
X009264Y008327D02*
X008840Y008327D01*
X008806Y008228D02*
X009401Y008228D01*
X009600Y008228D02*
X009700Y008228D01*
X009700Y008327D02*
X009600Y008327D01*
X009600Y008425D02*
X009700Y008425D01*
X009700Y008524D02*
X009600Y008524D01*
X009600Y008622D02*
X009700Y008622D01*
X009700Y008918D02*
X009600Y008918D01*
X009600Y009016D02*
X009700Y009016D01*
X009700Y009115D02*
X009600Y009115D01*
X009600Y009213D02*
X009700Y009213D01*
X009891Y009213D02*
X011000Y009213D01*
X011000Y009115D02*
X010032Y009115D01*
X010114Y009016D02*
X011000Y009016D01*
X011000Y008918D02*
X010164Y008918D01*
X010112Y007834D02*
X011000Y007834D01*
X011000Y007736D02*
X010160Y007736D01*
X010160Y007637D02*
X011000Y007637D01*
X011000Y007539D02*
X010160Y007539D01*
X010160Y007440D02*
X011000Y007440D01*
X011000Y007342D02*
X010160Y007342D01*
X010160Y007243D02*
X011000Y007243D01*
X011000Y007145D02*
X010160Y007145D01*
X010160Y007046D02*
X011000Y007046D01*
X011000Y006948D02*
X010160Y006948D01*
X009250Y005175D02*
X008995Y005175D01*
X009072Y005076D02*
X009186Y005076D01*
X009148Y004978D02*
X009113Y004978D01*
X008094Y006554D02*
X008042Y006554D01*
X008091Y006652D02*
X008193Y006652D01*
X008130Y006751D02*
X008291Y006751D01*
X008390Y006849D02*
X008130Y006849D01*
X008125Y006948D02*
X008460Y006948D01*
X008460Y007046D02*
X008084Y007046D01*
X008025Y007145D02*
X008460Y007145D01*
X008460Y007243D02*
X007926Y007243D01*
X007928Y007440D02*
X008460Y007440D01*
X008460Y007342D02*
X004663Y007342D01*
X004691Y007243D02*
X007374Y007243D01*
X007372Y007440D02*
X004612Y007440D01*
X004530Y007539D02*
X007273Y007539D01*
X007215Y007637D02*
X004387Y007637D01*
X004678Y007834D02*
X004855Y007761D01*
X005045Y007761D01*
X005222Y007834D01*
X007170Y007834D01*
X007170Y007745D02*
X007170Y007936D01*
X007204Y008018D01*
X007171Y008051D01*
X005391Y008051D01*
X005357Y007969D01*
X005222Y007834D01*
X005321Y007933D02*
X007170Y007933D01*
X007191Y008031D02*
X005383Y008031D01*
X004493Y008819D02*
X007600Y008819D01*
X007600Y008721D02*
X007700Y008721D01*
X007700Y008622D02*
X007600Y008622D01*
X007600Y008524D02*
X007700Y008524D01*
X007700Y008425D02*
X007600Y008425D01*
X008085Y007637D02*
X008460Y007637D01*
X008460Y007539D02*
X008027Y007539D01*
X008314Y007736D02*
X008460Y007736D01*
X007258Y006554D02*
X005282Y006554D01*
X005183Y006455D02*
X006196Y006455D01*
X006097Y006357D02*
X005085Y006357D01*
X004986Y006258D02*
X005631Y006258D01*
X005533Y006160D02*
X004888Y006160D01*
X004789Y006061D02*
X005434Y006061D01*
X005400Y005963D02*
X004691Y005963D01*
X004592Y005864D02*
X005400Y005864D01*
X005400Y005766D02*
X004494Y005766D01*
X004395Y005667D02*
X005400Y005667D01*
X004067Y008819D02*
X001933Y008819D01*
X002066Y008918D02*
X003934Y008918D01*
X003858Y009016D02*
X002142Y009016D01*
X002183Y009115D02*
X003817Y009115D01*
X003800Y009213D02*
X002200Y009213D01*
X002200Y009312D02*
X003800Y009312D01*
X003827Y009410D02*
X002173Y009410D01*
X002133Y009509D02*
X003867Y009509D01*
X003958Y009607D02*
X002042Y009607D01*
X001876Y009706D02*
X004124Y009706D01*
X004436Y009706D02*
X008996Y009706D01*
X008898Y009607D02*
X004602Y009607D01*
X004693Y009509D02*
X008799Y009509D01*
X010161Y011676D02*
X011000Y011676D01*
X011000Y011774D02*
X010108Y011774D01*
X010024Y011873D02*
X011000Y011873D01*
X011000Y011971D02*
X009875Y011971D01*
X011000Y012070D02*
X000300Y012070D01*
X000300Y012168D02*
X011000Y012168D01*
X005903Y011577D02*
X000300Y011577D01*
X000300Y011479D02*
X001454Y011479D01*
X001447Y011475D02*
X001381Y011427D01*
X001323Y011369D01*
X001275Y011303D01*
X001238Y011230D01*
X001213Y011152D01*
X001201Y011081D01*
X001670Y011081D01*
X001670Y011549D01*
X001598Y011538D01*
X001520Y011512D01*
X001447Y011475D01*
X001334Y011380D02*
X000300Y011380D01*
X000300Y011282D02*
X001264Y011282D01*
X001223Y011183D02*
X000300Y011183D01*
X000300Y011085D02*
X001202Y011085D01*
X001201Y010981D02*
X001213Y010909D01*
X001238Y010831D01*
X001275Y010758D01*
X001323Y010692D01*
X001381Y010634D01*
X001447Y010586D01*
X001520Y010549D01*
X001598Y010523D01*
X001670Y010512D01*
X001670Y010981D01*
X001201Y010981D01*
X001220Y010888D02*
X000300Y010888D01*
X000300Y010986D02*
X001670Y010986D01*
X001670Y010981D02*
X001670Y011081D01*
X001770Y011081D01*
X001770Y011549D01*
X001842Y011538D01*
X001920Y011512D01*
X001993Y011475D01*
X002059Y011427D01*
X002117Y011369D01*
X002165Y011303D01*
X002202Y011230D01*
X002227Y011152D01*
X002239Y011081D01*
X001770Y011081D01*
X001770Y010981D01*
X002239Y010981D01*
X002227Y010909D01*
X002202Y010831D01*
X002165Y010758D01*
X002117Y010692D01*
X002059Y010634D01*
X001993Y010586D01*
X001920Y010549D01*
X001842Y010523D01*
X001770Y010512D01*
X001770Y010981D01*
X001670Y010981D01*
X001670Y010888D02*
X001770Y010888D01*
X001770Y010986D02*
X003800Y010986D01*
X003800Y010935D02*
X003873Y010759D01*
X004008Y010624D01*
X004185Y010551D01*
X004375Y010551D01*
X004552Y010624D01*
X004687Y010759D01*
X004760Y010935D01*
X004760Y011126D01*
X004687Y011302D01*
X004552Y011437D01*
X004375Y011511D01*
X004185Y011511D01*
X004008Y011437D01*
X003873Y011302D01*
X003800Y011126D01*
X003800Y010935D01*
X003820Y010888D02*
X002220Y010888D01*
X002181Y010789D02*
X003860Y010789D01*
X003941Y010691D02*
X002115Y010691D01*
X002001Y010592D02*
X004084Y010592D01*
X004476Y010592D02*
X005414Y010592D01*
X005375Y010691D02*
X004619Y010691D01*
X004700Y010789D02*
X005375Y010789D01*
X005375Y010888D02*
X004740Y010888D01*
X004760Y010986D02*
X005375Y010986D01*
X005412Y011085D02*
X004760Y011085D01*
X004736Y011183D02*
X005453Y011183D01*
X005495Y011282D02*
X004696Y011282D01*
X004609Y011380D02*
X005594Y011380D01*
X005692Y011479D02*
X004453Y011479D01*
X004107Y011479D02*
X001986Y011479D01*
X002106Y011380D02*
X003951Y011380D01*
X003864Y011282D02*
X002176Y011282D01*
X002217Y011183D02*
X003824Y011183D01*
X003800Y011085D02*
X002238Y011085D01*
X001770Y011085D02*
X001670Y011085D01*
X001670Y011183D02*
X001770Y011183D01*
X001770Y011282D02*
X001670Y011282D01*
X001670Y011380D02*
X001770Y011380D01*
X001770Y011479D02*
X001670Y011479D01*
X001670Y010789D02*
X001770Y010789D01*
X001770Y010691D02*
X001670Y010691D01*
X001670Y010592D02*
X001770Y010592D01*
X001439Y010592D02*
X000300Y010592D01*
X000300Y010494D02*
X005455Y010494D01*
X005499Y010395D02*
X000300Y010395D01*
X000300Y010297D02*
X005598Y010297D01*
X005696Y010198D02*
X000300Y010198D01*
X000300Y010100D02*
X005914Y010100D01*
X001325Y010691D02*
X000300Y010691D01*
X000300Y010789D02*
X001259Y010789D01*
X000921Y008721D02*
X000855Y008721D01*
X000678Y008647D01*
X000543Y008512D01*
X000470Y008336D01*
X000470Y008145D01*
X000543Y007969D01*
X000678Y007834D01*
X000579Y007933D02*
X000300Y007933D01*
X000300Y008031D02*
X000517Y008031D01*
X000476Y008130D02*
X000300Y008130D01*
X000300Y008228D02*
X000470Y008228D01*
X000470Y008327D02*
X000300Y008327D01*
X000300Y008425D02*
X000507Y008425D01*
X000554Y008524D02*
X000300Y008524D01*
X000300Y008622D02*
X000653Y008622D01*
X001357Y007969D02*
X001222Y007834D01*
X000991Y002614D02*
X000300Y002614D01*
X000300Y002515D02*
X000753Y002515D01*
X000630Y002417D02*
X000300Y002417D01*
X000300Y002318D02*
X000531Y002318D01*
X000468Y002220D02*
X000300Y002220D01*
X000300Y002121D02*
X000427Y002121D01*
X000387Y002023D02*
X000300Y002023D01*
X000300Y001924D02*
X000375Y001924D01*
X000375Y001826D02*
X000300Y001826D01*
X000300Y001727D02*
X000375Y001727D01*
X000399Y001629D02*
X000300Y001629D01*
X000300Y001530D02*
X000440Y001530D01*
X000481Y001432D02*
X000300Y001432D01*
X000300Y001333D02*
X000561Y001333D01*
X000660Y001235D02*
X000300Y001235D01*
X001547Y002515D02*
X002483Y002515D01*
X002581Y002417D02*
X001670Y002417D01*
D16*
X008650Y002841D02*
X008650Y001841D01*
X008650Y002841D02*
X008650Y003841D01*
X008650Y004841D01*
X008650Y005841D01*
X008650Y006341D01*
X009650Y007341D01*
D17*
X008650Y006841D02*
X008650Y007841D01*
X008400Y008091D01*
X008150Y007841D01*
X007650Y007841D01*
X007250Y008241D01*
X004950Y008241D01*
X004150Y008241D01*
X003050Y007141D01*
X002850Y005841D02*
X002600Y005841D01*
X000950Y007491D01*
X000950Y008241D01*
X000950Y008481D01*
X001720Y009251D01*
X002850Y005841D02*
X004300Y005841D01*
X005300Y006841D01*
X007650Y006841D01*
X007150Y006341D02*
X006350Y006341D01*
X005850Y005841D01*
X005850Y004841D02*
X006850Y005841D01*
X007650Y005841D01*
X008150Y006341D02*
X008650Y006841D01*
X008400Y008091D02*
X008650Y008341D01*
X008650Y009091D01*
X009650Y010091D01*
X007650Y004841D02*
X006850Y004841D01*
X005850Y003841D01*
X005850Y002841D02*
X006850Y003841D01*
X007650Y003841D01*
X007650Y002841D02*
X006650Y001841D01*
X005350Y001841D01*
X004850Y002341D01*
X004850Y003341D01*
X003350Y004841D01*
X002850Y004841D02*
X001850Y004841D01*
X001350Y005341D01*
X001850Y003841D02*
X001350Y003341D01*
X001850Y003841D02*
X002850Y003841D01*
X003350Y003841D01*
X003850Y003341D01*
X003850Y002341D01*
X004850Y001341D01*
X007150Y001341D01*
X007650Y001841D01*
M02*
